<?xml version="1.0" encoding="utf-8"?>
<!-- Generator: Adobe Illustrator 16.0.3, SVG Export Plug-In . SVG Version: 6.00 Build 0)  -->
<!DOCTYPE svg PUBLIC "-//W3C//DTD SVG 1.1//EN" "http://www.w3.org/Graphics/SVG/1.1/DTD/svg11.dtd">
<svg version="1.1" id="Capa_1" xmlns="http://www.w3.org/2000/svg" xmlns:xlink="http://www.w3.org/1999/xlink" x="0px" y="0px"
	 width="145.071px" height="145.071px" viewBox="0 0 145.071 145.071" enable-background="new 0 0 145.071 145.071"
	 xml:space="preserve">
<circle cx="72.535" cy="72.534" r="72.535"/>
<line fill="none" stroke="#FFFFFF" stroke-width="1.3064" stroke-linecap="round" x1="51.475" y1="72.536" x2="145.071" y2="72.536"/>
<path fill="#FFFFFF" stroke="#FFFFFF" stroke-width="1.2353" d="M82.263,73.599c-1.347-5.301-0.649-10.733-0.649-10.733
	l-9.307-27.047c0,0,0.028-1.178-0.648-1.932c-0.843-0.94-2.11-1.048-2.814,0c-0.47,0.697-0.434,1.932-0.434,1.932l-9.307,27.047
	c0,0-1.298,9.229-3.03,13.093c-4.438,9.902-14.718,19.749-15.8,22.538c-0.438,1.131,3.247,4.079,3.247,4.079l-2.165,3.221
	c0,0-1.178-0.655-3.03,0c-1.159,0.409-2.814,2.791-2.814,2.791s0,7.727-3.03,11.374c-0.86,1.036-3.896,1.771-3.896,0.432
	c0-1.719-0.432-7.3,0.217-12.022c0.458-3.335,1.163-5.216,2.814-8.155c1.836-3.273,5.844-6.868,5.844-6.868l3.462-6.656
	c0,0,4.999-10.769,6.062-17.817c0.738-4.896,0.753-7.291,1.083-12.234c0.501-7.586,5.842-22.537,5.842-22.537l9.125-18.377h16.449
	c0,0,4.356,6.552,7.325,15.157c2.814,8.158,3.896,26.832,3.896,26.832l16.227,44.862c0,0,2.34,1.209,3.03,6.224
	c0.561,4.079,0.678,5.313,3.247,6.871c3.895,2.359,6.493,5.581,4.978,5.581c-1.514,0-6.06,0.214-10.172,0
	c-2.04-0.109-2.417-3.33-3.463-6.439c-0.216-0.646-0.889-2.251-1.731-2.148c-1.731,0.215-1.298,8.588-1.298,8.588h-2.598
	c0,0-0.377-3.165-0.432-6.01c-0.048-2.469-0.254-3.639,0.432-6.013c0.68-2.347,2.587-4.569,1.3-6.653
	C96.111,95.922,85.197,85.125,82.263,73.599z"/>
</svg>
