<svg width="51" height="35" viewBox="0 0 51 35" fill="none" xmlns="http://www.w3.org/2000/svg">
<rect width="51" height="35" rx="17.5" fill="white"/>
<path fill-rule="evenodd" clip-rule="evenodd" d="M26.2556 9.873C26.2497 10.1347 26.0743 10.3322 25.9107 10.5315C25.7359 10.7439 25.7017 10.5363 25.484 10.9396C25.298 11.2834 25.4104 11.2108 25.1502 11.4755C24.8954 11.7349 24.9319 12.1751 24.7753 12.4398L24.2597 13.0668C24.1432 13.0834 24.3527 13.0537 24.1291 13.0287C24.0808 13.1013 24.0466 13.1239 23.996 13.1964C23.9531 13.2583 23.9272 13.3202 23.8695 13.3707C23.7447 13.4802 23.554 13.4998 23.3739 13.4219C23.2056 13.3487 23.112 13.2988 23.0131 13.1488C22.9642 13.0751 22.9542 13.0275 22.9048 12.9561C22.8565 12.8865 22.8094 12.8556 22.7877 12.7485C22.7582 12.6004 22.8036 12.7735 22.78 12.6611L22.7365 12.5582C22.6882 12.4469 22.6982 12.4469 22.6994 12.2911C22.7006 12.0805 22.6935 11.8598 22.6994 11.651C22.7041 11.4761 22.8183 10.6457 22.8665 10.5446C23.3527 10.6588 23.1885 10.7135 23.401 10.7433C23.554 10.7653 23.9778 10.7076 24.0996 10.6826C24.7806 10.5434 24.7512 10.406 25.092 10.1752C25.1985 10.2472 25.2073 10.3025 25.3892 10.3114C25.9919 10.3423 26.0808 10.0027 26.2556 9.873ZM24.6947 5.50916C24.7176 5.41339 24.6894 5.4586 24.7612 5.40863C24.7382 5.5044 24.7665 5.45919 24.6947 5.50916ZM26.7541 8.1277C26.7541 8.66128 26.783 8.58395 26.8872 9.03425C26.6458 9.16333 26.3557 9.38343 26.3557 9.70584H26.3227C26.3227 9.24007 26.3827 8.93372 25.7247 8.93372C25.5917 8.93372 25.5599 9.00272 25.4257 9.03425C25.4257 8.41977 25.6947 7.88857 24.7612 7.38949C24.8065 7.192 24.8595 7.10098 24.9389 6.93145C25.0455 6.7054 24.9148 6.85352 25.102 6.59238C25.1797 6.48352 25.0743 6.38895 25.3351 6.05583C25.6011 5.71617 25.9307 5.19567 26.278 5.02852C26.3474 4.9952 27.185 4.834 27.2385 4.86671C27.3845 4.95713 27.2003 6.04155 27.1826 6.24439C27.1285 6.87196 26.7541 7.27349 26.7541 8.1277ZM24.7612 5.40863C24.8018 5.25397 25.0466 4.90716 25.1408 4.75131C25.2397 4.58713 25.4746 4.24331 25.6582 4.19989C25.6317 4.29923 25.5393 4.43188 25.4793 4.5223C25.3904 4.65673 25.351 4.69897 25.2697 4.84768C25.2032 4.96903 25.1555 5.0535 25.0937 5.17366C25.0467 5.26527 24.9578 5.42826 24.8989 5.51391C24.8259 5.62099 24.7747 5.70784 24.7017 5.81848C24.5734 6.01359 24.3509 6.20811 24.1726 6.35801C24.0661 6.44783 24.0084 6.54123 23.8971 6.61677C23.9142 6.41095 24.2297 6.24618 24.4339 5.98444L24.82 5.4687C24.8948 5.37948 24.8954 5.40803 24.9266 5.27419L24.7612 5.40863ZM26.5546 2.65565L26.6211 2.95783C26.4004 2.97628 26.1126 3.10476 25.9154 3.15116C25.6588 3.21184 25.3933 3.24217 25.172 3.33973C24.9878 3.42063 24.8471 3.63656 24.7229 3.79241L24.3156 4.32064C24.1785 4.50445 24.0361 4.62699 23.8895 4.79593C23.614 5.11358 23.2803 5.41993 23.0102 5.75364C22.72 6.11174 22.8018 6.2664 22.8018 6.41571L22.4363 7.45611L22.0037 7.48883C21.6823 7.51916 21.8471 7.93021 21.8701 8.13008C21.9554 8.87721 21.6129 8.82249 21.4922 9.48991C21.3845 10.086 21.4445 9.9533 21.0001 10.4024C20.7223 10.6832 20.5299 10.964 20.345 11.0829C20.2503 11.1442 19.5475 12.3369 19.5475 12.5927C19.5475 12.9222 19.5452 13.2541 19.7894 13.4891C19.9578 13.6509 20.0066 13.774 20.0661 14.0155C20.1738 14.4528 20.0643 14.2499 20.2674 14.6175C20.3721 14.8073 20.4269 15.0042 20.5675 15.1535C20.8665 15.4712 21.0502 15.561 21.3739 15.9833C21.5428 16.204 21.8036 16.4152 21.8595 16.7013C21.8742 16.7757 21.8665 16.8149 21.8783 16.8839C21.9124 17.0826 21.9389 16.8899 21.9389 17.3259C21.9389 17.8785 21.0101 18.7095 20.6488 18.976L20.2532 19.3151C20.1096 19.459 20.0443 19.5554 19.9219 19.719C19.7965 19.8861 19.7518 20.0134 19.6841 20.2175C19.6058 20.453 19.4516 21.0211 19.584 21.2841C19.886 21.8831 20.1255 21.726 20.1785 21.8581H20.3115C20.3651 21.6546 20.7047 21.6903 20.8759 21.6903C21.1826 21.6903 21.2003 21.848 21.3745 21.9586C22.2456 22.5089 22.4922 21.6309 23.1544 22.2073C23.4651 22.4779 23.3074 22.5297 23.9313 22.5297C24.2485 22.5297 24.1479 22.2989 24.5352 22.5576C24.6311 22.6219 24.6729 22.6356 24.7953 22.6641C24.7953 22.9651 24.8948 23.2102 24.8948 23.4695L24.7276 24.7068C24.7112 24.7865 24.7047 24.9055 24.677 25.0614C24.5823 25.589 24.474 26.1113 24.3097 26.6044C24.1538 27.0743 24.009 27.5348 23.81 27.9791C23.7064 28.2099 23.514 28.8321 23.5004 29.0766C23.4757 29.5222 23.4333 29.176 23.4333 30.0498C23.4333 30.4971 23.5575 31.9069 23.9313 32.2656C24.0831 32.1627 24.3386 31.8516 24.3604 31.6583C24.3957 31.3454 24.3221 30.8897 24.3692 30.5929C24.3857 30.4906 24.3927 30.4787 24.461 30.4174C24.4904 30.3906 24.5675 30.3365 24.6152 30.3044C24.9307 30.0914 24.9313 30.0421 25.1467 29.7672C25.4298 29.4056 25.3286 29.2194 25.1444 28.8244C25.0678 28.6608 24.9325 28.339 24.9807 28.1891L25.6535 27.0565C25.7306 26.9256 25.7983 26.7525 25.8701 26.6044C25.9113 26.5188 26.0649 26.009 26.2238 25.6526C26.5016 25.0292 26.524 23.9074 26.3874 23.2381C26.3127 22.8711 26.2568 22.5903 26.2568 22.1954L26.6647 22.287C27.1191 22.3821 27.2638 22.4071 27.6423 22.0853C27.7541 21.9907 27.979 21.7355 28.0172 21.591C29.0949 21.591 28.7606 21.7022 28.9684 20.8403C29.1161 20.227 29.4875 20.6833 29.8777 20.4501C30.1297 20.2996 30.3827 20.0991 30.6005 19.9052C30.77 19.7541 30.9148 19.691 31.0602 19.4965C31.5429 18.8505 31.5958 18.104 31.228 17.3729C30.8836 16.6888 30.8754 16.4997 31.0066 15.6829C31.0502 15.4111 31.1567 14.9691 31.2727 14.7431C31.4875 14.3249 31.4457 13.9287 31.1155 13.5926C30.9325 13.4058 30.6747 13.3915 30.6747 13.0644C30.6747 12.9841 30.7506 12.8151 30.7812 12.7021C30.8224 12.5498 30.866 12.4921 30.9266 12.3452C31.0361 12.0793 31.1597 11.9336 31.2633 11.7123C31.5793 11.0401 30.7848 10.8051 30.5882 10.5666C30.258 10.1657 30.2297 9.84266 30.0408 9.64279C30.0361 9.63803 30.029 9.63089 30.0243 9.62613L29.9902 9.59341C29.8318 9.44708 29.6535 9.36142 29.4828 9.23353C29.3398 9.12705 29.3427 9.10861 29.2474 8.96763C29.0367 8.65771 28.8813 8.83438 28.5158 8.83438C28.5158 8.36861 28.371 7.87072 28.3204 7.38651C28.308 7.26814 28.3239 7.1456 28.3115 7.02603C28.2444 6.38657 28.2321 5.83514 28.3345 5.19329C28.4051 4.74953 28.4828 4.29506 28.4828 3.83227C28.4828 3.60385 28.2956 3.40992 28.1373 3.17436C28.0408 3.031 27.9966 2.85076 27.8772 2.73238C27.7106 2.56642 27.5411 2.1875 27.2868 2.1875C27.1414 2.1875 26.9872 2.3261 26.8866 2.38737C26.8165 2.4302 26.7747 2.4534 26.6976 2.49861C26.6264 2.53787 26.5546 2.5569 26.5546 2.65565Z" fill="black"/>
</svg>
