<svg width="51" height="35" viewBox="0 0 51 35" fill="none" xmlns="http://www.w3.org/2000/svg">
<rect width="51" height="35" rx="17.5" fill="white"/>
<path d="M21.9312 24.8709C21.3975 24.9063 20.924 24.9404 20.4502 24.9682C20.1152 24.9878 20.0307 25.0654 20.054 25.3971C20.0724 25.6587 20.1154 25.9188 20.15 26.1791C20.1924 26.4974 20.1875 26.8129 20.1389 27.1321C20.0095 27.9852 19.8685 28.8393 20.0381 29.7047C20.0418 29.723 20.0469 29.7429 20.0437 29.7605C19.9656 30.1852 20.0011 30.6025 20.0608 31.0297C20.1094 31.3771 19.8959 31.5951 19.5423 31.6879C19.3427 31.7403 19.1602 31.8235 18.9792 31.9266C18.5128 32.1927 17.9913 32.2488 17.4678 32.2654C17.2806 32.2715 17.1852 32.1487 17.179 31.9568C17.1696 31.6586 17.2795 31.4144 17.5367 31.2706C17.9297 31.0508 18.0995 30.5923 18.5032 30.3857C18.5988 30.3368 18.5293 30.2346 18.5145 30.1548C18.3796 29.4295 18.1857 28.7127 18.1922 27.9671C18.1941 27.7372 18.1385 27.5207 18.0792 27.3038C17.9331 26.7674 17.8182 26.2268 17.8616 25.6656C17.8781 25.4534 17.7844 25.4021 17.5921 25.4407C16.8632 25.5871 16.1493 25.8073 15.4057 25.8834C15.1024 25.9145 14.8743 26.0959 14.6724 26.3124C14.6279 26.36 14.5954 26.4204 14.5466 26.4625C14.44 26.5544 14.2969 26.5908 14.1803 26.5382C14.0462 26.4776 14.1311 26.3383 14.1542 26.2378C14.2114 25.9913 14.3042 25.7512 14.3423 25.5022C14.4249 24.9634 14.7962 24.7165 15.247 24.5414C15.379 24.4901 15.5069 24.4377 15.6066 24.3329C15.7538 24.1778 15.7288 24.0622 15.5172 24.021C15.3174 23.982 15.1103 23.979 14.9062 23.9649C14.7945 23.9572 14.6929 23.9401 14.7072 23.7944C14.7222 23.6423 14.8285 23.6475 14.9351 23.6809C15.3771 23.8198 15.7865 23.7842 16.1919 23.5302C16.4448 23.3717 16.7231 23.4439 16.9454 23.6367C17.2318 23.8852 17.5339 23.9794 17.9183 23.8983C18.1534 23.8487 18.2965 23.7558 18.3537 23.5338C18.4189 23.2796 18.4852 23.0219 18.4752 22.7575C18.4309 21.5875 18.7103 20.4877 19.1749 19.4275C19.2748 19.1996 19.2903 18.9748 19.1906 18.7462C18.8699 18.0113 18.8408 17.2437 19.037 16.4861C19.2149 15.7993 19.1367 15.1258 19.0742 14.4456C19.0528 14.2135 19.0483 13.9767 18.9644 13.7522C18.9154 13.6213 18.8532 13.498 18.7077 13.4844C18.3149 13.4475 18.0084 13.2379 17.7166 13.0015C17.3195 12.6798 16.854 12.4827 16.4086 12.2485C16.1136 12.0932 16.0544 11.95 16.1513 11.6312C16.2537 11.294 16.4583 11.0341 16.7342 10.8264C17.062 10.5795 17.0849 10.4878 16.8622 10.1527C16.7391 9.96766 16.8207 9.76192 16.8292 9.58551C16.841 9.3416 16.749 9.15031 16.6869 8.94005C16.6472 8.80548 16.5855 8.67694 16.5507 8.5413C16.5062 8.36812 16.5186 8.14492 16.6767 8.08841C17.0628 7.95061 16.9584 7.67737 16.8703 7.4492C16.7115 7.03794 16.7839 6.69591 17.0275 6.34611C17.2057 6.09056 17.2462 5.75974 17.1617 5.4783C17.0286 5.03513 17.2299 4.66958 17.351 4.29369C17.5251 3.75282 17.7515 3.22942 18.1731 2.81622C18.6029 2.39482 19.0652 2.1755 19.7033 2.18801C20.3304 2.2003 20.8551 2.48281 21.4334 2.60811C21.5874 2.64154 21.6565 2.67971 21.6572 2.87941C21.658 3.16257 21.824 3.39418 22.1383 3.15437C22.8475 2.61328 23.8855 2.98012 24.3893 3.43408C24.5758 3.60229 24.7046 3.81881 24.7407 4.05884C24.824 4.61114 24.8834 5.16754 24.9316 5.72415C24.9536 5.97906 24.8601 6.20011 24.6171 6.33403C24.4536 6.42418 24.4066 6.59218 24.3796 6.76104C24.3439 6.98489 24.2879 7.19947 24.1954 7.40801C24.0889 7.64869 24.2496 8.04075 24.5088 8.28164C24.9701 8.70994 25.4863 9.02566 26.1073 9.15894C26.3176 9.20401 26.5003 9.32241 26.677 9.44965C26.831 9.56071 26.9203 9.67781 26.8381 9.87406C26.7814 10.0095 26.8477 10.0634 26.9767 10.0755C27.4392 10.1193 27.9018 10.1464 28.3632 10.0712C28.5551 10.0399 28.5662 9.89951 28.5264 9.74984C28.5003 9.65129 28.4424 9.56157 28.4133 9.46366C28.345 9.23291 28.3949 9.06081 28.6499 8.98081C28.8833 8.90748 29.0824 8.76342 29.2846 8.62885C29.5394 8.45934 29.693 8.47962 29.8866 8.71253C30.031 8.88613 30.5273 10.3259 30.5162 10.5523C30.5115 10.6457 30.5031 10.7414 30.4777 10.8305C30.3994 11.1035 30.3181 11.3593 30.6396 11.556C30.7605 11.63 30.704 11.7831 30.6011 11.8721C30.2304 12.1926 29.8271 12.4313 29.3092 12.3386C29.1167 12.3041 28.919 12.281 28.7352 12.2185C28.0348 11.9804 27.3013 12.0231 26.5827 11.9392C26.4171 11.9198 26.2562 11.8631 26.0911 11.8374C25.7128 11.7783 25.506 11.9554 25.4163 12.3308C25.2946 12.84 25.4461 13.3401 25.4249 13.8448C25.4138 14.1089 25.4011 14.3638 25.3049 14.617C25.2095 14.8681 25.2214 15.1297 25.3359 15.3837C25.4903 15.7266 25.6033 16.074 25.5941 16.4659C25.5819 16.9759 25.8168 17.3466 26.2836 17.5925C26.9254 17.9304 27.559 18.2701 28.256 18.4946C28.563 18.5936 28.7953 18.8897 29.0022 19.1553C29.2279 19.4454 29.5062 19.6526 29.838 19.7943C30.1891 19.944 30.5566 20.0641 30.7958 20.3971C30.8533 20.4773 30.956 20.4993 31.0469 20.5064C31.4583 20.5381 31.8079 20.7415 32.1735 20.9026C32.9792 21.2576 33.8516 21.4055 34.6711 21.7115C35.2729 21.936 35.8886 22.0391 36.5203 22.0868C36.8491 22.1116 36.9585 22.2759 36.8016 22.5735C36.5858 22.9828 36.2191 23.1974 35.7718 23.2634C35.5215 23.3003 35.2708 23.2699 35.0226 23.2125C34.8025 23.1616 34.5821 23.1515 34.3631 23.2373C34.1549 23.3186 34.1742 23.4109 34.3335 23.5241C34.4401 23.5998 34.552 23.6688 34.6517 23.7527C34.7238 23.8133 34.7943 23.9041 34.7062 23.9928C34.6247 24.0747 34.5537 23.9876 34.4933 23.933C34.4243 23.8703 34.3596 23.8021 34.2946 23.7351C34.1339 23.5694 33.9433 23.5062 33.7121 23.5297C33.2598 23.5755 33.0446 23.4629 32.9259 23.0398C32.8318 22.7049 32.6249 22.5476 32.3256 22.4428C31.7583 22.244 31.162 22.1756 30.578 22.0689C29.576 21.8854 28.6539 21.5632 27.8817 20.8707C27.7937 20.792 27.6767 20.6281 27.5597 20.7342C27.4696 20.8159 27.6247 20.9447 27.6637 21.0549C27.7013 21.1607 27.7666 21.2602 27.7854 21.3686C27.9371 22.2502 28.4667 22.9281 29.0187 23.5684C29.6645 24.3178 30.1743 25.1159 30.4595 26.0767C30.7203 26.9557 31.2048 27.7532 31.4594 28.6411C31.5364 28.9096 31.6765 29.1573 31.6939 29.447C31.7059 29.6484 31.8654 29.7267 32.0336 29.7726C32.7411 29.9667 33.253 30.4729 33.8116 30.9033C33.9209 30.9876 33.9677 31.1168 33.9138 31.2576C33.8638 31.3885 33.7457 31.4196 33.6229 31.4444C33.0808 31.5548 32.5541 31.5141 32.027 31.3364C31.7198 31.2328 31.3927 31.1888 31.0745 31.1185C30.7603 31.0493 30.5468 30.8783 30.5671 30.5753C30.5934 30.183 30.4022 29.8839 30.2334 29.59C29.9296 29.0605 29.7116 28.4899 29.4057 27.963C29.2497 27.6943 29.0978 27.4301 28.8655 27.2169C28.6126 26.9848 28.4355 26.693 28.3367 26.3661C28.0787 25.514 27.5498 24.8545 26.9419 24.2306C26.6323 23.913 26.4066 23.5125 26.1416 23.1506C25.6859 22.528 25.163 21.969 24.5617 21.4879C24.4367 21.3878 24.2782 21.2138 24.1278 21.3205C23.9928 21.4163 24.1563 21.5921 24.1824 21.7333C24.2297 21.991 24.2938 22.2438 24.2754 22.5123C24.2549 22.8103 24.4205 23.0702 24.487 23.352C24.6488 24.0383 24.2551 24.6725 23.5691 24.7987C23.006 24.9011 22.4401 24.9162 21.9312 24.8709ZM21.2659 22.9158C21.4298 22.8966 21.614 22.875 21.7979 22.8537C21.9629 22.8345 22.0185 22.748 21.9205 22.608C21.7943 22.4282 21.7147 22.1491 21.4909 22.1243C21.2548 22.098 21.1861 22.3831 21.0659 22.553C21.0605 22.5606 21.0547 22.5681 21.0507 22.5765C21.0047 22.6736 20.8845 22.765 20.9565 22.8767C21.0199 22.974 21.1469 22.9011 21.2659 22.9158ZM21.4398 6.75069C21.4539 6.83954 21.458 6.93443 21.4858 7.02155C21.5168 7.11817 21.565 7.23613 21.6882 7.2137C21.8033 7.193 21.833 7.07353 21.829 6.9685C21.8232 6.81991 21.8001 6.67175 21.783 6.52381C21.7735 6.44229 21.7389 6.37846 21.6482 6.37371C21.562 6.36897 21.5066 6.42181 21.4847 6.4988C21.4618 6.57837 21.4548 6.6627 21.4398 6.75069Z" fill="black"/>
</svg>
