<svg width="27" height="27" viewBox="0 0 27 27" fill="none" xmlns="http://www.w3.org/2000/svg">
<path fill-rule="evenodd" clip-rule="evenodd" d="M0.666992 1.16797C0.666992 0.615684 1.11471 0.167969 1.66699 0.167969H5.00033C5.45919 0.167969 5.85918 0.480266 5.97047 0.925433L6.63713 3.5921L9.11444 13.5013H22.2195L24.6968 3.5921C24.8308 3.0563 25.3737 2.73054 25.9095 2.86449C26.4453 2.99844 26.7711 3.54138 26.6371 4.07717L23.9705 14.7438C23.8592 15.189 23.4592 15.5013 23.0003 15.5013H8.33366H7.66699C7.11471 15.5013 6.66699 15.949 6.66699 16.5013C6.66699 17.0536 7.11471 17.5013 7.66699 17.5013H23.0003C23.5526 17.5013 24.0003 17.949 24.0003 18.5013C24.0003 19.0536 23.5526 19.5013 23.0003 19.5013H7.66699C6.01014 19.5013 4.66699 18.1582 4.66699 16.5013C4.66699 15.0496 5.69807 13.8388 7.06784 13.5611L4.69685 4.07717L4.21955 2.16797H1.66699C1.11471 2.16797 0.666992 1.72025 0.666992 1.16797ZM8.33366 23.5013C8.14956 23.5013 8.00033 23.6505 8.00033 23.8346C8.00033 24.0187 8.14956 24.168 8.33366 24.168C8.51776 24.168 8.66699 24.0187 8.66699 23.8346C8.66699 23.6505 8.51775 23.5013 8.33366 23.5013ZM6.00033 23.8346C6.00033 22.546 7.04499 21.5013 8.33366 21.5013C9.62232 21.5013 10.667 22.546 10.667 23.8346C10.667 25.1233 9.62232 26.168 8.33366 26.168C7.045 26.168 6.00033 25.1233 6.00033 23.8346ZM21.667 23.5013C21.4829 23.5013 21.3337 23.6505 21.3337 23.8346C21.3337 24.0187 21.4829 24.168 21.667 24.168C21.8511 24.168 22.0003 24.0187 22.0003 23.8346C22.0003 23.6505 21.8511 23.5013 21.667 23.5013ZM19.3337 23.8346C19.3337 22.546 20.3783 21.5013 21.667 21.5013C22.9557 21.5013 24.0003 22.546 24.0003 23.8346C24.0003 25.1233 22.9557 26.168 21.667 26.168C20.3783 26.168 19.3337 25.1233 19.3337 23.8346Z" fill="white"/>
</svg>
