<svg width="51" height="35" viewBox="0 0 51 35" fill="none" xmlns="http://www.w3.org/2000/svg">
<rect width="51" height="35" rx="17.5" fill="white"/>
<path fill-rule="evenodd" clip-rule="evenodd" d="M17.5869 14.0535C17.4788 14.0791 17.4514 14.0966 17.3119 14.0999C17.4294 13.9378 17.5716 13.7756 17.7705 13.8685C17.6637 14.0158 17.6944 13.9061 17.5869 14.0535ZM19.1289 31.7187H17.9774C17.4968 31.6932 17.0502 31.6367 16.9327 31.5458L16.6237 31.3487C16.6237 30.9517 16.639 30.4134 16.7151 30.0999C16.7505 29.9545 16.7852 29.684 16.7992 29.5373C16.8099 29.429 16.7999 29.3382 16.8192 29.2339C16.8386 29.1296 16.8686 29.1202 16.8987 28.9903C16.5903 28.9903 16.7178 29.0334 16.5863 28.8887C16.2452 28.5139 16.4094 28.5395 16.5936 28.1741C17.0148 27.3384 17.3239 27.3001 17.4033 27.0013C17.5162 27.0013 18.0395 27.1581 18.0709 27.0531L18.687 25.5204C19.0034 24.8717 19.3466 24.5299 19.5048 24.2177C19.7558 23.7211 20.0308 23.5132 20.1576 23.2575C20.4834 22.6035 20.3185 22.8996 20.8552 22.3889C21.1062 22.15 21.1683 21.9609 21.486 21.9609C21.5681 21.605 21.721 21.3352 21.8158 20.9988C21.9246 20.6125 22.0841 20.7101 22.1723 20.1099C22.1829 20.0352 22.1663 20.0729 22.1943 19.9928C22.2637 19.795 22.3024 19.8361 22.3872 19.4902C22.494 19.0555 22.4206 18.9486 22.6616 18.1976C22.7784 17.833 22.9446 17.257 22.954 16.8277L22.2958 17.1352C22.0628 17.2476 21.9166 17.3397 21.6996 17.4588C20.9366 17.8794 21.0495 17.6553 20.6963 17.7811C20.6022 17.8148 20.5735 17.9184 20.4767 17.9837C20.4186 17.843 20.4587 17.9729 20.4767 17.7522C20.2764 17.7993 20.2177 17.8901 20.0181 17.9372C20.1436 17.7482 20.165 17.8168 20.3379 17.7044L20.6549 17.4696C20.7651 17.37 20.7517 17.2523 20.8272 17.0881C21.0127 16.683 21.2424 16.4919 21.3993 16.0465C21.5928 15.4975 22.4707 14.3321 22.3946 13.8335C22.3812 13.744 22.2671 13.5435 22.2177 13.454C22.0848 13.2151 21.8285 12.5941 21.5782 12.5268L21.3846 12.8861C21.3792 12.8942 21.3719 12.9056 21.3659 12.9137C21.2924 13.0133 21.3619 12.9305 21.2804 13.0126C21.1609 13.1337 21.0455 13.3282 20.9961 13.5118C20.9273 13.7675 20.8899 13.6834 20.7464 13.8611C20.7391 13.8705 20.6903 13.9458 20.673 13.9721C20.4553 14.2924 20.1576 14.4868 19.8919 14.7573L19.1123 15.5439C18.7645 15.8918 17.9774 16.8587 17.7051 17.2704C17.5055 17.5719 17.5856 17.7327 17.3539 18.1189C17.3486 18.1277 17.3419 18.1391 17.3366 18.1479C17.2024 18.3786 17.0736 18.526 16.9775 18.8032C16.9461 18.8927 16.9007 19.0293 16.876 19.1174C16.8006 19.3859 16.7518 19.7143 16.4401 19.7876C16.3994 19.6113 16.394 19.6039 16.394 19.3711C16.2104 19.4949 16.3833 19.4512 16.139 19.4485C15.844 19.4451 15.8353 19.5299 15.7799 19.2513C15.635 18.5253 15.8426 18.2757 16.3079 17.804L16.4634 17.6371C16.5596 17.473 16.5242 17.329 16.6724 17.1978C16.8733 17.0195 16.7625 17.2778 16.9915 16.9219C17.0836 16.7779 17.1363 16.6554 17.2224 16.5061C17.3786 16.2329 17.5642 15.951 17.7104 15.6569C18.0802 14.9107 18.5061 14.2184 18.932 13.5118C19.0221 13.3625 19.1029 13.2642 19.1937 13.1283C18.8813 13.1283 18.9807 13.2003 18.7351 13.2205L18.9334 13.096C19.2197 12.9318 19.1777 12.9372 19.2237 12.7475C19.2257 12.7408 19.2284 12.7273 19.2297 12.7206C19.2611 12.5954 19.2952 12.3411 19.2591 12.224C19.181 11.969 19.0982 12.2469 19.1937 11.8331C19.0889 11.8835 19.0208 11.8633 18.948 11.9044C18.7771 12.002 18.916 11.932 18.8773 12.002C18.8746 12.0073 18.8693 12.0201 18.8659 12.0248C18.7718 12.1856 18.8032 12.0544 18.7338 12.2469C18.5982 12.6196 18.7544 12.4084 18.4674 12.9036L18.3526 13.1115C18.3012 13.2118 18.3019 13.2023 18.2765 13.312C18.4954 13.312 18.4667 13.2804 18.6436 13.2656C18.434 13.5805 18.3966 13.306 18.1296 13.5334L17.7718 14.0522H17.5883C17.5202 14.1457 17.4414 14.2029 17.3132 14.2372L17.3119 14.1376L17.0382 14.1908C17.0816 14.1531 17.0823 14.1517 17.1403 14.1087C17.3232 13.9734 17.5001 13.8389 17.635 13.6357C17.432 13.6404 17.121 13.7642 16.9928 13.6821C17.1009 13.6565 17.2071 13.6404 17.3346 13.6094L17.868 13.4109C17.9721 13.3571 18.0248 13.3759 18.1189 13.1054C18.2865 12.6217 18.398 12.7421 18.3232 12.3868C18.0155 12.4124 18.2645 12.4999 17.9561 12.5254C18.1383 12.2509 18.1577 12.2798 18.3693 11.8781C18.123 11.8257 18.3446 11.9152 18.0115 11.8257C17.9307 11.8041 18.0722 11.8136 17.9167 11.8055C17.8112 11.8001 17.9167 11.8055 17.8079 11.8156C17.4094 11.8526 17.4033 11.8142 17.0108 12.2226C16.6937 12.5524 16.9474 12.1426 16.4227 12.512C15.9521 12.8437 16.3379 12.3525 16.3506 12.2025C16.2265 12.2126 16.2258 12.224 16.121 12.2489C16.1123 12.2435 16.0983 12.2381 16.093 12.2368L15.892 12.2489C15.9895 12.1143 16.1123 12.1433 16.2672 12.0255C16.3246 11.9818 16.5482 11.7839 16.5803 11.7402C16.4247 11.5269 16.0916 11.6009 15.846 11.2315H15.9374V11.1851C16.402 11.2941 16.0656 11.2315 16.5335 11.2315C16.4267 11.0842 16.2338 11.0478 16.087 10.9415L15.7992 10.5378C16.0022 10.6744 16.2365 10.8938 16.4928 10.9355C16.9714 11.0135 16.8446 11.0593 17.0262 10.9462C17.0869 10.9079 17.1203 10.8917 17.1764 10.8621C17.0529 10.6031 17.2612 10.6381 16.9467 10.6307C16.9641 10.4194 16.9514 10.5647 17.0095 10.4625C17.0762 10.3454 17.0048 10.5755 17.0843 10.3528C16.641 9.70952 16.1076 9.46258 16.0289 9.24323L16.2124 9.28966C16.147 9.04272 16.0028 9.1201 15.9374 8.87316L16.0769 8.93775C16.1744 8.97005 16.0983 8.88998 16.1924 8.99091C16.3279 9.13692 16.1651 9.17325 16.4421 9.1968C16.4367 8.95188 16.2912 8.71975 16.2258 8.53605C16.0696 8.09668 15.8133 7.74679 15.9374 7.48572C16.0709 7.58463 16.0149 7.55099 16.0656 7.72661C16.111 7.88338 16.0689 7.83494 16.1664 7.94865C16.1664 7.59203 16.0749 7.61155 16.0749 7.25493C16.3379 7.44872 16.1564 8.08457 16.663 8.92833C16.8006 9.1571 16.7512 9.2836 17.0382 9.28966C17.0516 9.13154 17.0489 9.15038 17.1477 9.02994C17.2645 8.88729 17.4915 8.69754 17.5429 8.50376C17.4267 8.44791 17.5215 8.49299 17.4134 8.47213L17.4668 8.09331C17.5789 7.87463 17.5382 8.1754 17.4968 8.04083C17.3766 7.85983 17.2805 7.70171 17.161 7.50052C17.0502 7.31414 16.9648 7.14324 16.8546 6.97704L16.9815 6.92052C17.1417 6.90504 17.1457 7.21994 17.4407 7.54291C17.5515 7.66403 17.5909 7.6425 17.635 7.80937C17.8112 7.79456 17.7745 7.7912 17.8753 7.68152L17.9601 7.58194C18.0001 7.53686 17.9995 7.55166 18.0475 7.48505L17.7725 7.02279H17.91C17.91 6.9185 17.918 6.82699 17.9227 6.73683C17.9447 6.31629 18.0642 5.97179 18.1904 5.59364C18.3419 5.13879 19.1376 4.02252 19.6997 4.29435C19.9313 3.94581 20.2491 3.70493 20.7611 3.6511C21.3972 3.58448 21.0001 3.81326 21.5875 3.33014C21.7384 3.20634 21.6402 3.23056 21.9012 3.23056C21.9446 3.3214 21.9673 3.44386 21.9927 3.55421C22.3946 3.28304 22.1008 3.69618 22.6809 3.4156C22.9479 3.59592 22.7824 3.55421 23.2317 3.55421C23.4553 3.89064 23.3872 3.86843 23.3251 4.29704C23.2737 4.65164 23.3485 4.79159 23.4152 5.08092C23.775 4.83802 23.6248 4.65164 24.4553 4.3253C24.729 4.21764 24.7156 3.98955 24.9586 3.81528L25.1689 3.65715C25.2957 3.52191 25.2924 3.31736 25.4252 3.17539C25.528 3.06504 25.6275 3.06975 25.7169 2.96074L25.7543 2.90557C25.7603 2.89749 25.7676 2.88605 25.773 2.87865C25.9432 2.64719 26.0607 2.4164 26.319 2.27308C26.331 2.26635 26.3671 2.24819 26.3798 2.24213C27.072 1.89695 27.3471 1.4024 28.2149 1.77113C29.4778 2.30807 29.1795 2.72322 30.0686 2.72322C30.1454 3.01322 30.4651 2.86991 30.5733 3.27833C31.0352 3.03206 30.8229 3.67061 30.9698 3.89535L31.1006 4.08778C31.2969 4.43296 31.9297 4.74449 31.5419 5.17983L31.367 5.46647C31.2261 5.72418 31.1827 5.82511 30.9678 6.03571C30.8757 6.12655 30.9157 6.11511 30.8016 6.19248C30.5286 6.26381 30.3937 5.68246 30.2382 5.51222C29.9758 5.22559 30.096 4.6153 29.7802 4.36029C29.7155 4.30781 29.7302 4.33876 29.6828 4.32194C29.5386 4.2708 29.3884 4.13488 29.2809 4.02588L29.2355 3.97945C29.1915 3.93504 29.1888 3.93706 29.1454 3.88592C29.0266 3.74732 29.0813 3.80249 28.9385 3.67532C28.7008 3.46404 28.9471 3.6585 28.8283 3.49836C28.7289 3.36513 27.9739 3.16664 27.7289 3.04821C27.7102 3.27429 27.6895 3.17673 27.5774 3.31399C27.4265 3.4997 27.5213 3.39406 27.5179 3.61476C27.5153 3.79576 27.3691 3.96801 27.1782 4.01915C27.2636 4.18265 27.2903 4.15238 27.1722 4.28493L26.8164 4.76468C26.7075 4.87772 26.6268 4.91607 26.6074 5.11726C26.5914 5.28547 26.6214 5.25116 26.825 5.29826C27.3597 5.42139 27.6535 5.55596 27.9278 6.0384L28.1781 6.4798C28.3898 6.89293 28.5299 7.0746 28.7175 7.55502C28.8036 7.77505 28.9131 7.99104 29.0132 8.18213C30.2849 8.18213 30.3623 8.47281 30.7615 8.50241C31.0159 8.52125 31.3169 8.33083 31.5813 8.33352C31.6814 8.3342 31.8603 8.36179 32.0425 8.36582C32.3309 8.37188 32.2435 8.41023 32.4537 8.46002C32.4537 9.02186 32.1073 9.17527 31.9951 9.66242C32.2395 9.79296 32.6614 9.85217 32.9137 9.98539C33.1653 10.1179 33.437 10.3178 33.4631 10.634C33.3483 10.6071 33.3256 10.5997 33.2394 10.5358C33.1013 10.4328 33.1827 10.4921 33.0939 10.3588C32.7555 9.8515 32.3236 10.05 31.8576 9.8017C31.7508 9.96252 31.6954 9.96185 31.5799 10.0769C31.1968 10.4604 31.2228 10.5062 30.5913 10.6522C30.4064 10.6953 30.3096 10.6986 30.12 10.7316C29.825 10.7834 29.3283 11.0317 29.1347 11.2645C28.9498 11.4865 29.12 11.9279 29.1447 12.1655C29.2349 13.0287 29.0593 13.964 29.1968 14.8091C29.2182 14.941 29.2042 14.7526 29.2142 14.8899C29.2188 14.9518 29.2062 14.9511 29.1961 15.0729C29.865 15.1287 30.0292 15.6435 30.4478 15.8918L30.5946 15.9745C30.6727 16.0048 30.6701 15.9859 30.7388 16.0142L31.3823 16.4294C31.9317 16.7039 32.68 17.0713 33.1867 17.4313C33.9497 17.9736 34.417 18.3719 34.8943 19.1787C35.0231 19.396 34.9911 19.4794 35.0625 19.7028C35.1139 19.863 35.1459 20.083 35.2521 20.2055C35.1126 20.3979 35.174 20.19 35.0979 20.4167C35.0431 20.5802 35.1126 20.696 35.1012 20.8601C35.0965 20.9301 35.1012 20.8844 35.0745 20.9665C35.0331 21.0943 35.0919 21.3433 35.0658 21.6366C35.0491 21.8257 35.0378 22.0437 35.0325 22.1621C35.0011 22.8384 34.9003 23.3127 34.8869 23.999L34.5805 25.6785C34.4904 26.0028 34.0972 27.6163 34.0158 27.7448C33.9283 27.8828 33.7635 27.9205 33.6012 27.9777C33.3596 28.0631 33.3202 27.9803 33.0959 27.9272C33.3883 28.5408 33.5899 28.238 33.8302 28.4823C33.9324 28.5866 33.947 28.7171 34.0919 28.8658C34.2067 28.9836 34.3382 29.0172 34.3803 29.176C34.184 29.4458 32.8156 29.2023 32.4991 29.176C32.4604 29.3422 32.4084 29.3711 32.3603 29.501C32.2809 29.7163 32.373 29.61 32.3122 29.7782C32.2321 30.0003 32.1313 29.9357 32.0572 30.1638C31.9297 30.5601 32.1807 31.4765 31.5332 31.5384C31.2368 31.5667 31.1394 31.379 31.0292 31.1657C30.7315 30.5883 30.6227 29.8388 30.4398 29.2164C30.2776 28.664 29.6868 26.8883 29.7595 26.5101C29.8083 26.2571 30.0453 26.2141 30.2909 26.1636C30.4838 26.1246 30.6627 26.0075 30.8864 25.9315C31.1607 25.8386 31.411 25.9113 31.375 25.626C31.3556 25.4726 31.2442 25.1846 31.5359 25.1523C31.4077 24.8832 31.5713 24.6591 31.5699 24.4075L31.5826 23.997C31.5813 22.9985 31.8977 22.9285 31.9451 22.327C31.9845 21.8371 32.2101 21.675 31.9638 21.2518C31.8256 21.0149 31.8142 21.0075 31.9491 20.805C31.4571 20.805 31.2014 20.6368 30.8356 20.4934C30.642 20.4181 30.4738 20.3932 30.2682 20.3252C29.4091 20.044 28.6541 19.5588 27.815 19.2365C27.5733 19.1437 27.5173 19.0932 27.3003 19.2628C25.8858 20.3629 26.1254 20.4113 25.265 21.4664C24.8338 21.9953 24.5574 22.6513 24.0921 23.1512C23.7296 23.5408 23.0374 24.7944 22.7357 25.299C22.205 26.1872 21.3605 26.7867 20.5508 27.3976C20.3579 27.5437 19.8632 27.8094 19.7444 27.9723C19.8679 28.1418 20.0114 28.123 20.1576 28.3423C20.1523 28.5967 19.95 29.0038 19.7471 29.0132C19.5448 29.0233 19.5415 28.9102 19.3345 29.0838C19.0936 29.2857 18.8819 29.9263 18.916 30.2371C18.934 30.4033 18.9527 30.3993 19.0602 30.5123L19.1062 30.5581C19.3159 30.7754 19.7664 31.457 19.3813 31.675C19.3472 31.6939 19.2571 31.7087 19.1289 31.7187ZM17.7705 13.822C17.7865 13.6309 17.8286 13.6296 17.9541 13.5448C17.938 13.7386 17.8933 13.7359 17.7705 13.822ZM19.422 12.7582C19.4807 12.6358 19.464 12.7085 19.4681 12.5268H19.5595C19.5488 12.6607 19.5548 12.7441 19.422 12.7582ZM19.1009 11.2786C19.2291 11.2255 19.2451 11.2544 19.3305 11.3708C19.0822 11.4913 19.167 11.4051 19.1009 11.2786ZM18.1837 11.2322C18.1517 11.352 18.1076 11.3553 17.9968 11.4219C17.9113 11.4738 17.8559 11.5861 17.7979 11.4482C17.7405 11.3123 18.0128 11.1528 18.1837 11.2322ZM15.9815 11.2786C16.1777 11.2948 16.2098 11.352 16.4728 11.3129C16.649 11.2874 16.7952 11.2302 16.9908 11.3244C16.8947 11.4569 16.6917 11.6238 16.5082 11.5848C16.3606 11.5538 16.0589 11.395 15.9815 11.2786ZM17.4955 9.33609C17.671 9.33609 17.5122 9.32196 17.633 9.38251C17.5055 9.57495 17.5509 9.48075 17.358 9.42894C17.4114 9.35089 17.3646 9.33609 17.4955 9.33609Z" fill="black"/>
</svg>
