<svg width="51" height="35" viewBox="0 0 51 35" fill="none" xmlns="http://www.w3.org/2000/svg">
<rect width="51" height="35" rx="17.5" fill="white"/>
<path fill-rule="evenodd" clip-rule="evenodd" d="M32.2489 20.8991C31.8675 20.8671 31.3564 20.3514 30.5295 20.3514L30.1322 21.4606C30.0365 21.6741 30.0184 21.6145 30.1218 21.8114C30.5728 21.7061 32.0486 21.1755 32.2489 20.8991ZM24.6473 12.2276C24.5319 12.2546 24.4673 12.2888 24.3578 12.3461C24.174 12.4421 24.2375 12.3798 24.1499 12.5469C24.3836 12.4923 24.5981 12.414 24.6473 12.2276ZM25.8239 2.78046C26.1084 2.75674 26.2551 2.68945 26.6382 2.68945C26.6327 2.92718 26.625 2.83065 26.5386 2.95421C26.4061 3.1423 26.294 3.17981 26.0499 3.23718C26.1719 3.34419 26.3098 3.28296 26.5024 3.28296C26.4931 3.70769 26.1779 3.52731 25.906 3.73085C25.1114 4.32602 25.217 4.17874 25.7462 5.41541C25.988 5.98079 26.1363 6.60629 26.3284 7.20146C26.4143 7.46843 26.5457 7.38845 26.6453 7.70341C26.8379 8.31181 26.7361 8.22025 26.9714 8.92573C27.1077 9.33446 27.2609 9.68858 27.5312 9.95886C27.6812 10.1083 27.7912 10.2142 27.9192 10.3891C28.2229 10.8039 28.1119 11.0306 28.6689 11.2303C28.8468 11.2937 29.0881 11.3753 29.2627 11.4526C29.4476 11.5348 29.6173 11.6269 29.7349 11.7979C30.2313 12.5177 29.8504 12.3726 29.8504 12.7312L30.228 13.3997C30.4666 13.8967 30.5574 14.5459 30.7621 15.0517C31.1041 15.8967 31.0538 15.9712 31.1939 16.8069C31.3208 17.5664 31.3832 17.4528 32.2227 17.9597C32.4711 18.1097 32.6342 18.2416 32.9078 18.364C33.4069 18.5879 33.8425 18.8621 34.3109 19.1395C34.5544 19.2841 34.7492 19.4021 34.9818 19.5582C35.2188 19.7171 35.3868 19.8516 35.61 20.0199C35.8316 20.187 36.0177 20.3216 36.1797 20.5406C36.4834 20.9499 36.6306 21.7039 36.2426 22.1452C35.5405 22.9422 34.5736 22.2522 33.7292 22.3454C32.8881 22.4381 31.4346 22.6289 30.7298 22.9742L30.3889 23.0735C29.9796 23.106 29.6737 23.1827 29.2167 23.1827L28.872 24.2042C28.4851 25.3791 28.1403 25.0807 27.5871 26.3312C27.5143 26.4956 27.4382 26.6577 27.3611 26.8331C27.0305 27.5822 26.8428 28.0003 26.665 28.8691C26.6475 28.9551 26.6398 29.0566 26.6163 29.1399L26.1128 30.3661C26.0515 30.4797 25.9623 30.7864 25.959 30.9414C26.1506 30.9866 26.2983 31.0859 26.4428 31.2293C26.5057 31.2922 26.5637 31.3942 26.6037 31.4836C26.6912 31.68 26.6683 31.5834 26.6239 31.7445C26.5402 32.049 26.5533 32.0545 26.2491 32.1461C25.86 32.263 25.2624 32.3672 24.9166 32.0848C24.5165 31.7588 24.7836 30.8426 24.7836 30.3479C24.7108 30.4538 24.6966 30.5746 24.6758 30.6959C24.6479 30.8581 24.6736 30.9706 24.5127 30.9734C24.1264 30.98 24.6468 30.2116 24.649 29.6644C24.6501 29.4317 24.6659 28.9965 24.7672 28.8707C24.8493 28.7681 24.9286 28.7786 25.0534 28.7025C25.478 28.4454 25.3976 28.9159 25.5311 28.3649C25.7626 27.4095 25.6433 27.265 25.6433 26.286C25.6433 25.5733 25.9902 24.9671 26.4007 24.5396L26.5774 24.3526C26.584 24.3455 26.5927 24.3355 26.5993 24.3289C26.7826 24.1303 26.9824 23.9152 27.0464 23.6389C26.9194 23.4475 26.8784 23.5285 26.9616 23.2384C26.9922 23.1314 27.0579 22.9053 27.1137 22.7938C27.2959 22.4309 27.3184 22.4028 27.3632 21.8589C27.1444 21.8771 27.0918 21.9179 27.0918 21.6763C27.0918 21.4832 27.3173 21.5395 27.4535 21.5395C27.4639 21.0591 27.8607 20.5307 27.8607 19.4402C27.8607 18.7656 27.5668 18.9355 28.0134 17.5857C28.1518 17.1676 28.5272 16.3998 28.1228 16.0264C28.0117 15.9238 27.847 15.8201 27.7228 15.745C27.5526 15.643 27.4694 15.5807 27.3184 15.4676C26.9594 15.1995 27.0776 15.4406 26.8499 15.3915C26.7881 15.3782 26.5107 15.2249 26.3875 15.1753C25.9684 15.0076 25.3122 14.6413 24.9532 14.568C24.5198 14.4797 24.1997 14.4626 23.8281 14.3335C23.3712 14.1758 22.7495 14.1449 22.205 14.1449C21.9145 14.1449 22.0436 14.2188 21.573 14.1918C21.4028 14.1818 21.2069 14.2254 21.0498 14.1692C20.9097 14.119 20.9579 14.1057 20.9059 14.0842C20.7598 14.0235 19.812 14.2083 19.5499 14.1802C19.3507 14.1587 19.0568 14.1647 18.8188 14.1388C18.6125 14.1168 18.3711 14.077 18.1375 14.05C17.628 13.9915 17.2849 13.9171 16.6857 13.9171C16.6337 14.1129 16.4963 14.1388 16.3836 14.2966C16.2572 14.4731 16.3989 14.3926 16.2309 14.5078C16.1007 14.5977 16.133 14.5051 15.994 14.6341C15.6771 14.9281 15.8451 15.3319 15.2831 15.3319C15.079 14.7632 15.0669 15.1714 15.2831 14.2365C15.1124 14.3275 15.1354 14.3126 15.0018 14.4549C14.8721 14.5928 14.899 14.6016 14.6494 14.6016C14.668 14.3732 14.8546 14.1835 15.004 14.0462C15.2979 13.7764 15.8566 13.5696 16.2123 13.3484C16.5696 13.1261 16.6977 13.2326 17.0928 13.2326C17.767 13.2326 18.3093 13.0389 18.949 13.0053C19.8268 12.9595 20.0982 13.0042 20.9842 13.0042C21.0799 12.6424 21.6452 12.8983 22.0567 12.8569C22.5443 12.8078 23.0724 12.7394 23.5567 12.5866L23.6224 12.5618C23.6295 12.5591 23.6443 12.5541 23.6541 12.548C23.311 12.4675 22.9093 12.5364 22.593 12.3401L21.9544 12.0246C21.9238 12.0097 21.8493 11.9672 21.8384 11.9573C21.7415 11.8718 21.7952 11.7135 21.6293 11.4349L21.5412 11.0372C21.573 10.8513 21.8636 10.7107 21.9128 10.4911C21.9145 10.4829 21.9227 10.4101 21.9347 10.3571C22.0425 10.3483 22.0907 10.3362 22.1903 10.2953C22.2001 10.2915 22.2111 10.2849 22.2209 10.281L22.5722 10.1789C22.8721 10.1067 22.3955 10.2358 22.6439 10.1596C22.6554 10.1563 22.6669 10.1519 22.6778 10.1481C22.6888 10.1442 22.6997 10.1392 22.7107 10.1354L22.9936 10.0554C23.2623 10.0107 23.9994 9.96217 24.2314 10.0946C24.3737 10.1756 24.4514 10.3053 24.5893 10.4183C24.8126 10.602 25.1661 10.6506 25.4999 10.869C25.5836 10.9236 25.6575 10.9628 25.7462 10.9909C25.773 10.9997 25.8781 11.0212 25.8868 11.0218L25.9497 11.0157C25.9569 11.0146 25.9733 11.008 25.9787 11.0069C26.2956 10.9379 26.1238 10.5402 26.0723 10.3367C26.0001 10.0493 25.959 9.84303 25.8895 9.56282L25.6537 8.84244C25.0189 7.5258 25.7226 8.30354 25.2575 7.18822C25.1169 6.85065 25.0501 6.67635 24.9691 6.29244C24.8952 5.94108 24.9116 5.60571 24.8569 5.21849C24.8317 5.04088 24.8142 4.83293 24.7934 4.68952C24.7229 4.20301 24.678 3.93329 24.9861 3.53062C25.1256 3.34805 25.171 3.22339 25.3095 3.03529C25.5541 2.70213 25.6488 2.22887 26.1429 2.1875C26.1325 2.55541 25.9098 2.40924 25.8239 2.78046Z" fill="black"/>
</svg>
