<svg width="126" height="39" viewBox="0 0 126 39" fill="none" xmlns="http://www.w3.org/2000/svg">
<path d="M28.6916 1.41392H41.993V3.99107H36.617V21.4492H33.929V3.99107H28.6916V1.41392ZM46.2621 1.41392H59.2864V3.99107H48.9501V10.0876H58.178V12.6647H48.9501V18.8721H59.6744V21.4492H46.2621V1.41392ZM64.3394 21.4492V0.776558H64.3671L74.8697 15.6853L73.7336 15.4636L84.2085 0.776558H84.2639V21.4492H81.6036V6.87305L81.7699 8.23091L74.2047 18.9275H74.1492L66.4732 8.23091L66.9443 6.9839V21.4492H64.3394ZM95.3694 1.41392C96.8289 1.41392 98.0759 1.66332 99.1104 2.16213C100.145 2.64246 100.939 3.34448 101.494 4.26819C102.066 5.1919 102.353 6.30959 102.353 7.62126C102.353 8.41565 102.233 9.20081 101.992 9.97672C101.752 10.7342 101.364 11.427 100.829 12.0551C100.311 12.6647 99.6277 13.1543 98.7779 13.5238C97.9281 13.8933 96.8935 14.078 95.6742 14.078H92.7091V21.4492H90.0211V1.41392H95.3694ZM95.6465 11.5008C96.4409 11.5008 97.0968 11.3715 97.614 11.1129C98.1313 10.8542 98.5377 10.531 98.8333 10.143C99.1289 9.73656 99.3414 9.31165 99.4707 8.86827C99.6 8.42489 99.6647 8.02769 99.6647 7.67668C99.6647 7.27025 99.6 6.85458 99.4707 6.42967C99.3414 5.98629 99.1197 5.58909 98.8056 5.23808C98.51 4.8686 98.1128 4.57301 97.614 4.35132C97.1337 4.11116 96.5333 3.99107 95.8128 3.99107H92.7091V11.5008H95.6465ZM105.255 11.4454C105.255 10.0599 105.513 8.75742 106.031 7.53813C106.566 6.30035 107.305 5.21037 108.248 4.26819C109.19 3.30753 110.271 2.55932 111.49 2.02357C112.728 1.46934 114.058 1.19223 115.48 1.19223C116.884 1.19223 118.196 1.46934 119.415 2.02357C120.653 2.55932 121.743 3.30753 122.685 4.26819C123.646 5.21037 124.394 6.30035 124.93 7.53813C125.466 8.75742 125.733 10.0599 125.733 11.4454C125.733 12.8679 125.466 14.1981 124.93 15.4359C124.394 16.6736 123.646 17.7636 122.685 18.7058C121.743 19.6295 120.653 20.3592 119.415 20.895C118.196 21.4123 116.884 21.6709 115.48 21.6709C114.058 21.6709 112.728 21.4123 111.49 20.895C110.271 20.3777 109.19 19.6572 108.248 18.7335C107.305 17.8098 106.566 16.7291 106.031 15.4913C105.513 14.2535 105.255 12.9049 105.255 11.4454ZM108.026 11.4731C108.026 12.5262 108.22 13.5145 108.608 14.4382C108.996 15.3435 109.532 16.1471 110.215 16.8491C110.899 17.5512 111.693 18.1054 112.598 18.5118C113.504 18.8998 114.483 19.0938 115.536 19.0938C116.57 19.0938 117.54 18.8998 118.445 18.5118C119.351 18.1054 120.136 17.5512 120.801 16.8491C121.466 16.1471 121.992 15.3435 122.38 14.4382C122.768 13.5145 122.962 12.5169 122.962 11.4454C122.962 10.3924 122.768 9.40402 122.38 8.48031C121.992 7.53812 121.457 6.71602 120.773 6.014C120.09 5.31198 119.295 4.76699 118.39 4.37903C117.485 3.9726 116.515 3.76938 115.48 3.76938C114.427 3.76938 113.448 3.9726 112.543 4.37903C111.638 4.78547 110.843 5.33969 110.16 6.04171C109.476 6.74373 108.95 7.56584 108.58 8.50802C108.211 9.43173 108.026 10.4201 108.026 11.4731Z" fill="white"/>
<line x1="8.22694" y1="21.6666" x2="125.567" y2="21.6666" stroke="white" stroke-width="0.865979" stroke-linecap="round"/>
<path d="M20.5959 21.8159C20.1233 19.9587 20.3683 18.0541 20.3683 18.0541L17.1062 8.57432C17.1062 8.57432 17.1157 8.16162 16.8787 7.89719C16.5834 7.56778 16.139 7.53048 15.8924 7.89719C15.7281 8.14166 15.7407 8.57432 15.7407 8.57432L12.4786 18.0541C12.4786 18.0541 12.0234 21.2893 11.4165 22.6435C9.86106 26.1145 6.25787 29.5653 5.87856 30.5434C5.72517 30.9389 7.0165 31.9729 7.0165 31.9729L6.25787 33.1014C6.25787 33.1014 5.84492 32.8721 5.19579 33.1014C4.78944 33.245 4.20958 34.0795 4.20958 34.0795C4.20958 34.0795 4.20958 36.788 3.1475 38.067C2.84616 38.4299 1.78196 38.6876 1.78197 38.2175C1.78197 37.6156 1.63024 35.6594 1.85782 34.0042C2.01857 32.835 2.26551 32.1764 2.84403 31.1453C3.48774 29.9979 4.89234 28.7377 4.89234 28.7377L6.10615 26.4054C6.10615 26.4054 7.85775 22.6307 8.2303 20.1607C8.48923 18.4441 8.49482 17.6043 8.60962 15.8723C8.78588 13.2128 10.6579 7.97242 10.6579 7.97242L13.8561 1.53125H19.6217C19.6217 1.53125 21.1485 3.82749 22.1891 6.84388C23.1753 9.70286 23.5546 16.2484 23.5546 16.2484L29.2422 31.9729C29.2422 31.9729 30.0626 32.3971 30.3043 34.1547C30.5009 35.5842 30.5421 36.0167 31.4423 36.5623C32.8078 37.3899 33.7181 38.5184 33.1871 38.5184C32.6561 38.5184 31.0629 38.5937 29.6216 38.5184C28.9069 38.4811 28.7742 37.3516 28.4077 36.2613C28.3319 36.0356 28.0963 35.4723 27.8008 35.509C27.1939 35.5842 27.3457 38.5184 27.3457 38.5184H26.4353C26.4353 38.5184 26.3025 37.4093 26.2836 36.4118C26.2672 35.5473 26.1949 35.1363 26.4353 34.3052C26.6734 33.4818 27.3419 32.7032 26.8905 31.9729C25.4491 29.6405 21.6241 25.8563 20.5959 21.8159Z" fill="white" stroke="white" stroke-width="0.43299"/>
</svg>
