<svg width="112" height="35" viewBox="0 0 112 35" fill="none" xmlns="http://www.w3.org/2000/svg">
<path d="M25.7758 1.34985H37.4937V3.62021H32.7577V19H30.3897V3.62021H25.7758V1.34985ZM41.2546 1.34985H52.7284V3.62021H43.6226V8.99093H51.7519V11.2613H43.6226V16.7296H53.0702V19H41.2546V1.34985ZM57.1798 19V0.78837H57.2042L66.4565 13.9222L65.4556 13.7269L74.6835 0.78837H74.7323V19H72.3887V6.15909L72.5352 7.3553L65.8706 16.7785H65.8218L59.0596 7.3553L59.4746 6.25674V19H57.1798ZM84.5158 1.34985C85.8015 1.34985 86.9 1.56957 87.8114 2.00899C88.7228 2.43214 89.4227 3.05058 89.9109 3.86433C90.4154 4.67807 90.6677 5.66271 90.6677 6.81823C90.6677 7.51805 90.5619 8.20973 90.3503 8.89328C90.1388 9.56055 89.797 10.1709 89.325 10.7242C88.8693 11.2613 88.2671 11.6926 87.5185 12.0181C86.7698 12.3436 85.8585 12.5063 84.7843 12.5063H82.1722V19H79.8042V1.34985H84.5158ZM84.7599 10.236C85.4597 10.236 86.0375 10.122 86.4932 9.89419C86.9489 9.66634 87.3069 9.38153 87.5673 9.03975C87.8277 8.6817 88.0149 8.30738 88.1288 7.91678C88.2427 7.52619 88.2997 7.17627 88.2997 6.86705C88.2997 6.509 88.2427 6.14282 88.1288 5.76849C88.0149 5.3779 87.8196 5.02799 87.5429 4.71876C87.2825 4.39326 86.9326 4.13287 86.4932 3.93757C86.07 3.72599 85.5411 3.62021 84.9064 3.62021H82.1722V10.236H84.7599ZM93.2243 10.1871C93.2243 8.96652 93.4522 7.81913 93.9079 6.74499C94.3798 5.65457 95.0308 4.69435 95.8608 3.86433C96.6909 3.01803 97.643 2.3589 98.7171 1.88693C99.8075 1.39868 100.979 1.15456 102.232 1.15456C103.469 1.15456 104.625 1.39868 105.699 1.88693C106.789 2.3589 107.75 3.01803 108.58 3.86433C109.426 4.69435 110.085 5.65457 110.557 6.74499C111.029 7.81913 111.265 8.96652 111.265 10.1871C111.265 11.4403 111.029 12.6121 110.557 13.7025C110.085 14.7929 109.426 15.7532 108.58 16.5832C107.75 17.3969 106.789 18.0398 105.699 18.5118C104.625 18.9675 103.469 19.1953 102.232 19.1953C100.979 19.1953 99.8075 18.9675 98.7171 18.5118C97.643 18.0561 96.6909 17.4213 95.8608 16.6076C95.0308 15.7938 94.3798 14.8418 93.9079 13.7513C93.4522 12.6609 93.2243 11.4729 93.2243 10.1871ZM95.6655 10.2115C95.6655 11.1392 95.8364 12.0099 96.1782 12.8237C96.52 13.6211 96.992 14.3291 97.5941 14.9475C98.1963 15.566 98.8961 16.0542 99.6936 16.4123C100.491 16.7541 101.354 16.9249 102.281 16.9249C103.193 16.9249 104.047 16.7541 104.845 16.4123C105.642 16.0542 106.334 15.566 106.92 14.9475C107.506 14.3291 107.969 13.6211 108.311 12.8237C108.653 12.0099 108.824 11.1311 108.824 10.1871C108.824 9.25946 108.653 8.38876 108.311 7.57501C107.969 6.74499 107.497 6.02076 106.895 5.40231C106.293 4.78386 105.593 4.30375 104.796 3.96198C103.998 3.60393 103.144 3.42491 102.232 3.42491C101.305 3.42491 100.442 3.60393 99.6448 3.96198C98.8473 4.32003 98.1475 4.80827 97.5453 5.42672C96.9431 6.04517 96.4793 6.7694 96.1538 7.59942C95.8283 8.41317 95.6655 9.28388 95.6655 10.2115Z" fill="black"/>
<line x1="7.74765" y1="19.6889" x2="111.119" y2="19.6889" stroke="black" stroke-width="0.762887" stroke-linecap="round"/>
<path d="M18.6437 19.823C18.2274 18.1868 18.4432 16.509 18.4432 16.509L15.5695 8.15773C15.5695 8.15773 15.5778 7.79417 15.369 7.56121C15.1089 7.27102 14.7173 7.23816 14.5002 7.56121C14.3554 7.77658 14.3665 8.15773 14.3665 8.15773L11.4928 16.509C11.4928 16.509 11.0918 19.359 10.5571 20.552C9.18682 23.6098 6.01258 26.6498 5.67843 27.5114C5.5433 27.8598 6.6809 28.7707 6.6809 28.7707L6.01258 29.7649C6.01258 29.7649 5.6488 29.5629 5.07694 29.7649C4.71897 29.8914 4.20813 30.6266 4.20813 30.6266C4.20813 30.6266 4.20814 33.0126 3.27249 34.1394C3.00703 34.4591 2.06952 34.6861 2.06952 34.272C2.06953 33.7417 1.93586 32.0184 2.13635 30.5603C2.27796 29.5303 2.49551 28.9501 3.00515 28.0417C3.57223 27.0309 4.80962 25.9207 4.80962 25.9207L5.87892 23.866C5.87892 23.866 7.422 20.5407 7.7502 18.3648C7.97831 16.8525 7.98323 16.1127 8.08436 14.5869C8.23964 12.244 9.8888 7.62749 9.8888 7.62749L12.7063 1.95312H17.7855C17.7855 1.95312 19.1306 3.97601 20.0472 6.6333C20.916 9.15193 21.2502 14.9183 21.2502 14.9183L26.2607 28.7707C26.2607 28.7707 26.9835 29.1445 27.1964 30.6928C27.3695 31.9522 27.4058 32.3332 28.1988 32.8138C29.4018 33.5429 30.2038 34.5371 29.736 34.5371C29.2681 34.5371 27.8647 34.6034 26.5949 34.5371C25.9653 34.5042 25.8484 33.5092 25.5256 32.5487C25.4587 32.3498 25.2512 31.8536 24.9909 31.8859C24.4563 31.9522 24.5899 34.5371 24.5899 34.5371H23.7879C23.7879 34.5371 23.6709 33.56 23.6543 32.6812C23.6399 31.9197 23.5762 31.5576 23.7879 30.8254C23.9977 30.1 24.5866 29.4141 24.1889 28.7707C22.9191 26.7161 19.5495 23.3823 18.6437 19.823Z" fill="black" stroke="black" stroke-width="0.381443"/>
</svg>
