<svg width="51" height="35" viewBox="0 0 51 35" fill="none" xmlns="http://www.w3.org/2000/svg">
<rect width="51" height="35" rx="17.5" fill="white"/>
<path fill-rule="evenodd" clip-rule="evenodd" d="M32.2501 25.0433C32.1579 25.081 32.2247 25.0096 32.1712 25.1807C32.0943 25.4254 32.077 25.3196 32.0348 25.4773C32.3123 25.4119 32.1472 25.2596 32.2501 25.0433ZM17.7953 19.2929L17.6161 19.5099C17.556 19.3826 17.5994 19.3866 17.4838 19.2821C17.3748 19.1837 16.9535 18.9977 17.114 18.6061H17.0063L17.0511 18.2092C17.5132 17.8776 17.9565 18.0124 18.4867 18.1269C19.2256 18.2867 19.721 18.6931 20.3837 18.9634L21.6354 19.5457C21.7444 19.6023 21.8199 19.6562 21.8908 19.758C22.0466 19.9804 21.8794 19.8564 22.1362 19.9804L21.9583 20.4158C21.9222 20.6948 21.8233 20.7629 21.838 20.895C21.8814 21.2784 21.9844 21.269 21.7658 21.6316C21.7203 21.7071 21.6902 21.7738 21.6701 21.8608C21.9944 22.3494 22.3455 22.8245 22.6497 23.3327C23.0014 23.9204 23.6761 24.4994 23.7971 25.1774C23.8152 25.2771 23.8593 25.4881 23.8894 25.5905C23.9255 25.7145 23.9736 25.8183 24.0077 25.941C24.0659 26.1499 23.977 26.1809 24.1181 26.3359C24.316 26.5536 24.1756 26.4869 24.197 26.7012C24.2043 26.7754 24.1916 26.7093 24.2177 26.776C24.2204 26.7835 24.2257 26.7929 24.2291 26.8003C24.2765 26.9007 24.3153 26.9324 24.4323 26.9594C24.5179 26.8778 24.4825 26.9095 24.534 26.8091C24.647 26.5873 24.8141 26.6588 25.0027 26.522L26.2611 25.693C26.4637 25.5663 26.6061 25.3337 26.8007 25.1882C26.9431 25.0817 26.9431 25.0796 26.9839 24.8667C27.1103 24.2082 27.1042 24.3194 27.3637 23.6946C27.4339 23.5261 27.5756 23.388 27.7187 23.2916L28.3773 22.6918C28.3245 22.5806 28.3472 22.468 28.2871 22.3123C28.1901 22.0616 28.0042 21.9403 27.8016 21.7893C27.6445 21.6727 27.5268 21.3674 27.4399 21.178C27.238 20.7386 27.2032 20.4697 27.4807 20.0525C27.3824 19.9049 27.2039 19.758 27.0561 19.6488L26.5834 19.2936C26.4349 19.1797 26.2811 19.0429 26.1447 18.904C26.0765 18.8346 25.9996 18.7436 25.9294 18.687C25.8398 18.6142 25.7536 18.5994 25.6446 18.5401C25.4019 18.408 24.8984 18.4599 24.5848 18.4397L24.2484 18.4181C23.9409 18.41 23.8914 18.2981 23.5918 18.4464C23.3979 18.5428 23.0563 18.503 22.9974 18.2799C22.853 18.2921 22.6852 18.3278 22.5033 18.2712C22.3528 18.2247 22.4237 18.222 22.3716 18.1876C22.3328 18.162 22.3702 18.1788 22.3334 18.1647C22.2305 18.1249 22.3167 18.164 22.2646 18.1559C22.1322 18.135 21.9991 18.0683 21.8855 17.9915C21.7457 18.2577 21.6267 18.2173 21.3626 18.0845C20.8858 17.8446 21.5752 17.8547 19.83 17.424C19.602 17.3674 19.7424 17.4031 19.5933 17.3013C19.37 17.1504 18.1089 16.7743 17.6549 16.5074C16.8646 16.043 17.0338 16.3126 16.5717 16.3611C16.3945 16.38 16.446 16.3308 16.2742 16.3477C15.8997 16.3841 15.558 16.4319 15.1856 16.3571C15.0612 16.3322 15.0485 16.2931 14.9991 16.1832C14.8901 15.9413 14.7443 15.9352 14.4855 15.8664L14.3872 15.8429C14.313 15.8267 14.3458 15.8779 14.2769 15.7903C14.1893 15.6798 14.2829 15.6946 14.1158 15.5908C14.0148 15.5274 13.9479 15.5079 13.8523 15.4587C13.7701 15.4162 13.6878 15.3623 13.6317 15.2835C13.5628 15.1878 13.5635 15.1298 13.5635 14.9539C13.736 14.968 13.7861 15.0469 13.8864 15.1345C14.0001 15.0921 13.9379 15.2134 13.958 15.026C14.1572 15.0428 14.1506 15.1844 14.3217 15.274C14.3979 15.3138 14.971 15.4573 15.0472 15.4358C15.1468 15.4075 15.1776 15.3401 15.2612 15.3239C15.425 15.2915 15.5627 15.4452 15.7667 15.4054C15.984 15.363 16.0542 15.3252 16.2895 15.3151C16.5202 15.3057 16.5945 15.2127 16.8231 15.2821C16.9475 15.3205 16.9101 15.3461 17.0137 15.3805L17.7746 15.5894C18.248 15.7269 18.8772 15.7835 19.384 15.8469C19.4977 15.8611 19.925 15.9183 19.9537 15.9163C20.1724 15.9001 19.9725 15.7485 20.383 15.888L21.6294 16.2398C21.9684 16.2405 21.7771 16.2958 22.0172 16.1327C22.0733 16.0949 22.1235 16.0707 22.2004 16.0808C22.3247 16.0969 22.3903 16.2203 22.4946 16.291C22.6865 16.161 22.7333 16.105 22.9573 16.1852C22.966 16.1886 22.9747 16.1926 22.9834 16.196L23.0382 16.2142C23.0489 16.2176 23.1465 16.2472 23.1499 16.2479C23.3672 16.3113 23.6119 16.1724 23.7864 16.4353C24.0218 16.3099 24.2832 16.2547 24.647 16.2547C24.647 16.0107 24.7078 15.9076 24.9672 15.7458C25.6004 15.3502 25.3791 15.3569 25.1999 14.902C24.9953 14.3844 24.8616 13.9908 24.8616 13.362C24.8616 13.1106 24.897 12.9987 24.8997 12.7844C24.9024 12.5795 24.897 12.3719 24.897 12.167C24.8984 11.2497 25.0923 10.5522 25.6954 9.86202C25.8833 9.64703 25.8311 9.67331 26.1113 9.63085L26.6215 9.53043C26.9685 9.5028 27.3724 9.55806 27.6612 9.70769C27.8103 9.78519 27.9093 9.91122 28.0898 9.92605C28.1386 9.74071 28.2844 9.59783 28.2463 9.37542C28.2262 9.2568 28.2162 9.24736 28.1841 9.1429C28.1219 8.93801 28.1841 8.85578 28.0303 8.322L27.6084 6.64987C27.5689 6.50969 27.5235 6.3877 27.4847 6.26841C27.4319 6.10665 27.3844 6.02712 27.3316 5.8802C27.2406 5.62476 27.0828 5.21701 26.9143 4.99864L26.6168 4.64817C26.558 4.58819 26.6027 4.62324 26.5432 4.57808C26.3313 4.41633 25.904 4.49316 25.8298 4.21279C26.0959 4.15011 26.0103 4.21751 26.2196 4.05912C26.3453 3.96409 26.3888 4.05845 26.5827 4.10428L26.3039 3.73427C26.2076 3.62508 26.2678 3.68035 26.2056 3.57993C26.1521 3.49366 25.7275 3.19981 25.8652 3.05558C25.9742 2.941 26.1996 3.19374 26.2684 3.26384C26.3895 3.38717 26.5479 3.46603 26.6903 3.56173C26.58 3.08388 26.007 2.54471 26.229 2.48405C26.4095 2.43418 26.5867 2.7624 26.6843 2.88102L27.1209 3.30899C27.1209 3.11826 27.145 2.82171 27.129 2.71118C27.0929 2.46383 27.0788 2.47124 27.0848 2.1875C27.3269 2.20772 27.2694 2.48001 27.4392 2.69837C27.4579 2.72264 27.4573 2.71522 27.484 2.76173C27.5603 2.89517 27.6365 3.28338 27.7301 3.49029C27.8538 3.76325 28.0624 3.95601 28.3258 3.7646C28.5465 3.60419 28.8307 3.38178 29.1296 3.52601C29.0968 3.66755 29.0975 3.63722 28.9972 3.71809C28.6889 3.96679 28.4288 4.26132 28.2556 4.63402C28.16 4.84093 28.1513 4.89619 28.0176 5.08086C28.0457 5.20218 28.0711 5.29721 28.1112 5.42055C28.3693 6.20977 28.7946 6.89789 29.1195 7.65881L29.4906 8.65898C29.5983 8.97508 29.5635 8.74256 29.728 8.88948C29.835 8.98519 29.833 9.25073 29.9099 9.35722C30.0189 9.50751 30.1332 9.8472 30.1653 10.0494C30.1967 10.2482 30.1673 10.1882 30.0984 10.2159C30.1051 10.532 30.2602 10.3695 30.1606 10.6398C30.0523 10.9323 30.1693 10.6627 30.1345 11.0839C30.0543 11.1176 30.0757 11.0947 29.9553 11.1203C29.9874 11.2403 30.168 11.4425 30.2516 11.5449C30.412 11.7438 30.7972 12.5444 31.0499 12.6165C31.2197 12.6651 31.0927 12.5222 31.3187 12.6745C31.6216 12.2189 31.8182 12.3254 32.2876 12.3483C32.8325 12.3746 32.975 12.4696 33.2451 12.7931C33.3307 12.8949 33.4497 13.089 33.5125 13.211C33.5807 13.3438 33.6403 13.5871 33.679 13.7306C33.7613 14.0326 33.8241 14.6236 33.7914 15.024C33.7212 15.8813 33.7439 16.5532 34.3577 17.1686C34.6599 17.4718 34.8732 17.5197 35.1775 17.7529C35.3874 17.9133 35.7425 18.2968 35.9812 18.3527C35.9812 18.2004 35.9658 18.2065 36.0173 18.0993C36.0969 18.1283 36.0527 18.0966 36.1062 18.1573C36.1838 18.2462 36.1363 18.3615 36.0888 18.4612C36.1878 18.528 36.2694 18.6189 36.3041 18.7504C36.1383 18.8623 36.2272 18.7976 36.0527 18.7504C35.8816 18.8656 35.6382 19.1696 35.2784 19.4163C34.6419 19.853 33.5132 20.3511 32.7055 20.8727C32.559 20.9671 32.6226 20.988 32.4293 20.9927C32.4293 21.1807 32.4093 21.1861 32.3872 21.3506C32.3605 21.5548 32.4514 21.5474 32.3217 21.6437L32.2501 21.3182C32.2501 21.6397 32.1739 21.8783 32.2501 22.1863L32.2762 22.2685C32.2782 22.2746 32.2816 22.2867 32.2862 22.2941C32.2983 22.1512 32.3223 22.125 32.3223 21.9322C32.436 21.9699 32.3705 21.9423 32.3839 22.4168L32.3865 23.4399C32.3832 23.5106 32.3852 23.4823 32.3852 23.545L32.3157 24.132C32.093 25.017 32.1746 24.5539 32.2983 24.9577C32.3203 25.0304 32.2856 25.3203 32.2856 25.4759C32.3698 25.5919 32.4333 25.5346 32.4601 25.7011C32.4862 25.8621 32.4079 25.8385 32.3932 26.0185C32.555 26.0623 32.7737 26.4647 33.003 26.5968C33.1187 26.6635 33.1287 26.681 33.2391 26.7565C33.3374 26.8239 33.3842 26.8407 33.4798 26.9115C33.8609 27.1946 34.2708 27.4608 34.6091 27.7985C34.9976 28.186 35.4904 28.5661 35.822 28.9988C35.9598 29.1781 36.0547 29.236 36.1818 29.4315C36.2486 29.5353 36.2747 29.571 36.3483 29.6613L36.8056 30.3932C36.9989 30.8387 37.1533 31.1346 36.8939 31.603C36.7836 31.8019 36.6652 31.9137 36.482 32.0195C36.2079 32.1773 35.9036 32.279 35.5713 32.2642C35.1414 32.2446 35.3794 32.2804 34.8746 32.1968C33.5807 31.9811 33.5714 31.7749 32.7175 31.5505C32.099 31.388 31.4585 31.2526 30.8781 31.0187L29.718 30.5611C29.278 30.4128 29.4732 30.4505 29.1362 30.5813C28.9825 30.6406 28.6548 30.553 28.4596 30.528C28.3258 30.5105 28.2877 30.5038 28.1005 30.5119C27.8625 30.522 27.9668 30.4377 27.6465 30.5274C27.5114 30.5651 27.5843 30.5469 27.4967 30.5496C27.254 30.5584 27.1337 30.6231 26.7519 30.6392C26.578 30.6467 26.3627 30.6419 26.2196 30.7141C26.0872 30.7808 25.9481 30.8623 25.7957 30.7929C25.7208 30.7592 25.8051 30.797 25.7262 30.7531C25.6058 30.6857 25.5162 30.6224 25.4366 30.5024C25.4895 30.402 25.5389 30.336 25.6085 30.2416L26.2029 29.5393C26.3206 29.4018 26.4951 29.2192 26.6362 29.108L27.0868 28.6578C26.786 28.7285 26.4643 28.8492 26.1855 28.9422C25.4079 29.2037 23.999 29.7685 23.2361 29.3937C22.8643 29.2111 22.8289 29.1599 22.5782 28.864C22.3047 28.5405 22.1603 28.0337 21.8935 27.7102C21.6146 27.3718 21.2121 26.592 21.0256 26.162C20.6137 25.2124 20.3489 24.6261 19.7986 23.7101C19.6943 23.5369 19.1246 22.5206 19.0932 22.3238C19.0397 21.9848 19.1253 22.1836 18.9126 21.8911C18.7595 21.6808 18.5422 21.3317 18.5389 21.0581C18.5369 20.9266 18.581 20.9826 18.5081 20.8188L18.3764 20.5148C18.25 20.2446 18.3804 20.4447 18.2066 20.2163C18.141 20.13 18.1551 20.0761 18.1551 19.9426C18.0695 19.9999 18.1176 19.9864 18.0113 20.0147C17.9953 19.9548 17.9685 19.8954 17.9311 19.8429C17.8335 19.7047 17.9237 19.8045 17.7606 19.7256L17.7953 19.2929Z" fill="black"/>
</svg>
