<svg width="51" height="35" viewBox="0 0 51 35" fill="none" xmlns="http://www.w3.org/2000/svg">
<rect width="51" height="35" rx="17.5" fill="white"/>
<path d="M32.4242 7.27288L33.0843 11.4742L36.8824 13.4225L34.9671 17.232L36.8933 21.0415L33.0627 22.9898L32.4026 27.1911L28.1933 26.5272L25.1959 29.5312L22.1877 26.4837L18.0109 27.1802L17.34 22.9463L13.5635 21.0089L15.4896 17.1994L13.5743 13.4225L17.3724 11.4524L18.0325 7.28377L22.2202 7.98036L25.2284 4.92188L28.2257 7.93682L32.4242 7.27288ZM22.5232 11.7899C22.0927 11.7899 21.6798 11.9619 21.3754 12.2681C21.071 12.5742 20.9 12.9895 20.9 13.4225C20.9 13.8555 21.071 14.2708 21.3754 14.577C21.6798 14.8831 22.0927 15.0551 22.5232 15.0551C22.9536 15.0551 23.3665 14.8831 23.6709 14.577C23.9753 14.2708 24.1463 13.8555 24.1463 13.4225C24.1463 12.9895 23.9753 12.5742 23.6709 12.2681C23.3665 11.9619 22.9536 11.7899 22.5232 11.7899ZM27.9336 19.4089C27.5031 19.4089 27.0903 19.5809 26.7859 19.8871C26.4815 20.1932 26.3105 20.6085 26.3105 21.0415C26.3105 21.4745 26.4815 21.8898 26.7859 22.196C27.0903 22.5021 27.5031 22.6741 27.9336 22.6741C28.3641 22.6741 28.7769 22.5021 29.0813 22.196C29.3857 21.8898 29.5567 21.4745 29.5567 21.0415C29.5567 20.6085 29.3857 20.1932 29.0813 19.8871C28.7769 19.5809 28.3641 19.4089 27.9336 19.4089ZM21.3437 22.6741L30.6388 13.3245L29.1131 11.7899L19.8179 21.1395L21.3437 22.6741Z" fill="black"/>
</svg>
