<svg width="51" height="35" viewBox="0 0 51 35" fill="none" xmlns="http://www.w3.org/2000/svg">
<rect width="51" height="35" rx="17.5" fill="white"/>
<path fill-rule="evenodd" clip-rule="evenodd" d="M28.1677 19.9359L28.235 19.9365L28.2375 19.8104C28.2161 19.7217 28.1413 19.6976 28.0772 19.6545L28.1677 19.9359ZM26.4167 2.1875H26.1029C26.1161 2.34594 26.2809 2.27623 26.3984 2.3301C26.4424 2.35038 26.5933 2.53227 26.6097 2.55762C26.4827 2.55762 26.3752 2.57282 26.289 2.62226L25.7653 3.04561C25.7188 3.0792 25.6993 3.07856 25.6829 3.13877C25.776 3.1882 25.7999 3.17743 25.8954 3.14131C25.9659 3.11469 26.0237 3.083 26.0853 3.05068C26.0457 3.20024 25.7439 3.3758 25.7181 3.4734C25.7841 3.51776 25.8495 3.52853 25.9281 3.49114C26.003 3.45565 26.1557 3.31242 26.2079 3.24461C26.2394 3.20342 26.2903 3.13054 26.3299 3.10328C26.3299 3.24841 26.3356 3.25728 26.3582 3.37453C26.4035 3.60585 26.1501 3.79535 26.3771 3.75352C26.4827 3.73387 26.4531 3.66479 26.5223 3.61409C26.5242 3.70155 26.5399 3.72056 26.5745 3.77253C26.6908 3.74528 26.792 3.4398 27.0787 3.38277C27.4365 3.31178 27.5685 3.40812 27.7106 3.13877H27.8156C27.9395 3.32509 28.2841 4.66359 28.3538 4.90378C28.4337 5.1801 28.6682 5.64401 28.6858 5.715C28.7443 5.95265 28.5469 6.3272 28.4563 6.58387C28.4035 6.73344 28.3526 6.86146 28.3035 7.01103C28.2627 7.13397 28.2294 7.31714 28.1288 7.39826C28.0194 7.48635 27.8986 7.74999 27.9169 7.88625C27.9238 7.93885 27.9376 7.94519 27.9313 7.99272C27.9244 8.04532 27.8773 8.14228 27.8578 8.19932C27.7081 8.63851 27.7616 8.60937 27.3095 8.79189C27.1083 8.87364 27.0027 8.90977 26.8939 8.8052C26.8354 8.74879 26.6449 8.57577 26.6279 8.50986L26.7562 8.44522C26.9932 8.30262 27.285 8.01363 27.4088 7.76456C27.4918 7.59789 27.5541 7.32284 27.4019 7.18405C27.2466 7.04209 26.9788 7.10862 26.7851 7.15426C26.8995 6.98187 27.3302 6.53254 27.0706 6.18017C26.9492 6.01539 26.9027 6.0287 26.8203 5.95709C27.1661 5.95709 27.505 5.83097 27.4459 5.46783L27.3969 5.35882C27.3969 5.61296 27.3837 5.67063 27.1925 5.75175C27.0222 5.824 26.9109 5.81639 26.6801 5.81639V5.79865C26.809 5.79865 26.9838 5.74985 27.0712 5.69915C27.4063 5.50332 27.3975 4.84168 27.0473 4.75929C27.1272 4.87971 27.1718 4.85815 27.2102 5.05398C27.2516 5.26312 27.1152 5.53754 26.8876 5.62057C26.7518 5.67063 26.6418 5.64338 26.5047 5.67507C26.5531 5.58254 26.6204 5.54072 26.6531 5.41777C26.7097 5.20292 26.3966 5.073 26.2205 5.23017C26.1419 5.30052 26.1463 5.3341 26.1036 5.41142L26.0759 5.45389C26.0746 5.45135 26.0709 5.46086 26.0683 5.46403C26.0834 5.28341 26.1067 5.23904 26.0281 5.08187C25.9797 4.98491 25.8986 4.91393 25.7533 4.91646C25.3264 4.92343 25.4691 5.39115 25.4735 5.44628C25.432 5.41586 25.3874 5.33665 25.3484 5.29038L25.3057 5.24538C25.0422 4.99885 24.7222 5.1237 24.7222 5.4634C24.3066 5.56099 24.0224 5.87154 23.8419 6.24926C23.686 6.57627 23.7992 6.73154 23.7954 6.97744C23.7923 7.17581 23.8199 7.17517 23.9054 7.28925C24.0821 7.52691 23.9545 7.34375 24.0576 7.54085C23.9985 7.5548 23.9677 7.57761 23.9004 7.59345C23.9413 7.64986 23.9073 7.62894 24.1104 7.62894C24.1104 7.94392 24.1048 7.88752 24.2255 8.09412C24.2833 8.19362 24.3267 8.26904 24.4034 8.3546C24.5795 8.55169 24.4663 8.50479 24.5769 8.62014C24.7876 8.83942 25.0007 8.64675 25.2114 8.59732C25.2661 8.70126 25.3208 8.78111 25.3748 8.89075C25.5647 9.27734 25.5031 9.13602 25.2428 9.43832C25.1843 9.50613 25.2126 9.50043 25.1189 9.54289C25.0649 9.56761 25.0252 9.58282 24.9718 9.60563L24.3097 9.85407C24.1934 9.89209 24.0702 9.9149 23.9432 9.94279C23.7722 9.97955 23.3025 10.157 23.1101 10.2305C22.9944 10.2749 22.7831 10.2197 22.5618 10.3649C22.4977 10.4067 22.4813 10.4428 22.4461 10.477C22.3814 10.5404 21.3056 10.9327 20.9679 11.1184L20.7485 11.2319C20.641 11.2857 20.5567 11.3421 20.4574 11.396C20.1732 11.5506 20.1109 11.5899 19.9971 11.8301C19.945 11.9398 19.911 12.0462 19.8632 12.1527L19.5608 12.7636C19.4332 13.0216 19.2131 13.4291 19.1314 13.687C19.1049 13.7713 19.0509 13.9741 19.0465 14.059C19.0446 14.099 19.1125 14.3537 19.1251 14.4114C19.2257 14.8836 19.2213 14.6903 19.159 15.1586C19.1408 15.2942 19.1225 15.4242 19.0961 15.5534C19.0496 15.7835 18.9924 15.7385 18.9893 15.8862C19.2508 15.8862 19.3709 15.5496 19.3741 15.4108L19.3866 15.4337C19.5344 15.7163 19.4778 15.606 19.4791 15.8868C19.4797 16.0902 19.4382 16.2918 19.4791 16.468C19.6375 16.4546 19.706 16.1872 19.706 16.0452C19.7431 16.0725 19.7853 16.146 19.8205 16.1942C19.8425 16.224 19.8745 16.2728 19.9104 16.2905C20.0141 16.3406 19.955 16.0459 19.9506 15.9926C20.0581 16.0719 20.0845 16.293 20.2304 16.3273C20.3857 16.094 19.9915 15.5902 19.8808 15.3411C19.867 15.3094 19.8179 15.1998 19.8142 15.1783C19.7985 15.0984 19.8318 15.0515 19.8456 14.9894C19.894 15.0452 19.9097 15.1599 19.9563 15.2651C20.0078 15.3817 20.016 15.4197 20.1028 15.5053C20.148 15.5496 20.3015 15.6485 20.3555 15.5731C20.4058 15.5027 20.3065 15.357 20.2801 15.2911C20.204 15.1022 20.1468 14.6858 20.0361 14.3747C20.0091 14.2992 19.8745 14.0926 19.8179 14.0134C19.7765 13.9557 19.7563 13.9614 19.7576 13.881C19.7607 13.7206 20.0292 13.4069 20.1386 13.2935C20.2725 13.154 20.4486 12.917 20.568 12.7573C20.9478 12.2484 20.9139 12.1337 21.371 12.0164C21.5791 11.9632 21.769 11.9081 21.9664 11.8415C22.1261 11.7877 22.7045 11.5709 22.8523 11.5722C23.012 11.5735 23.0654 11.5627 23.183 11.5177C23.2283 11.5006 23.2698 11.4771 23.3075 11.4492C23.4911 11.3149 23.4829 11.3637 23.7325 11.2965C24.0633 11.2078 24.1595 11.1869 24.3078 11.339C24.543 11.5798 24.4694 11.5126 24.5235 11.7027C24.5386 11.756 24.5619 11.7782 24.5889 11.8308C24.8737 12.3897 24.7574 12.1083 24.7574 12.3473C24.7976 12.3745 24.814 12.3948 24.88 12.3999C24.853 12.4404 24.858 12.4297 24.8209 12.4639L24.8027 12.4804C24.7373 12.5463 24.5826 12.8555 24.5826 13.0159C24.4084 13.109 24.0406 13.3784 23.8966 13.5223L23.8237 13.5894C23.8212 13.592 23.8174 13.5958 23.8149 13.5983C23.8124 13.6008 23.8086 13.6046 23.8061 13.6072C23.8011 13.6122 23.781 13.6325 23.7803 13.6338L23.5521 13.8791C23.5521 13.7206 23.5647 13.54 23.5263 13.412C23.4043 13.0045 22.8297 12.7801 22.7089 12.8714C22.4713 13.0514 23.3591 13.4373 23.3591 14.0552L23.3062 13.95C23.2918 13.9171 23.2798 13.8943 23.2616 13.8537C23.0698 13.424 22.7133 13.1242 22.2229 13.1204C22.0921 13.1198 22.0745 13.1211 21.9953 13.1743C21.9953 13.3137 22.0475 13.3283 22.1217 13.3993C22.3135 13.5825 22.6624 13.7168 22.7291 13.8087C22.6593 13.7922 22.5895 13.7536 22.5128 13.727C21.7325 13.4576 21.7312 13.8797 20.7535 13.6503C20.7768 13.7498 20.8786 13.8334 20.9686 13.874C21.1698 13.9652 21.3508 13.8987 21.5118 13.8683C21.6715 13.8385 22.0104 13.8791 22.1167 13.8791C22.0267 13.9367 21.8721 13.8892 21.8721 14.1611C21.9972 14.246 22.0846 14.2669 22.2914 14.2669C22.2537 14.3183 22.0104 14.4951 22.1519 14.7074C22.2889 14.7074 22.3455 14.6909 22.4467 14.6522C22.6442 14.5768 23.051 14.3867 23.2182 14.3728L23.1654 14.4076C22.9535 14.5312 22.7423 14.7955 22.6096 14.9919C22.5279 15.113 22.4442 15.2385 22.3738 15.3703C22.2676 15.5687 22.3047 15.4476 22.2349 15.5306C22.1764 15.601 22.272 15.6162 22.1808 15.7391C22.0752 15.8817 22.0267 15.9616 21.9626 16.1359C21.8243 16.5111 21.7319 17.2931 21.6979 17.7006C21.6294 17.6848 21.6614 17.6848 21.5929 17.7006C21.5929 17.7982 21.5822 17.8039 21.6803 17.8065C21.6803 17.8692 21.696 17.9649 21.6627 18.0175C21.6482 17.9547 21.6369 17.9757 21.6489 17.9262C21.6728 17.8261 21.6702 17.8242 21.5583 17.8242C21.5382 17.9123 21.5502 17.8533 21.5577 17.9117C21.564 17.9605 21.5514 17.9528 21.5483 17.9877L21.5747 18.1607C21.6231 18.2494 21.5929 18.1595 21.6225 18.271C21.669 18.4478 21.603 18.7786 21.5935 18.9694C21.591 19.0163 21.6137 19.1722 21.5753 19.183C21.5338 19.1944 21.5759 19.0873 21.4363 19.1811C21.4162 19.105 21.386 19.0923 21.3137 19.1285L21.2961 19.1462C21.3062 19.2679 21.3703 19.2432 21.4357 19.1988C21.4898 19.4327 21.5778 19.0613 21.5759 19.4276C21.5734 19.8294 21.5175 20.3294 21.5709 20.7179C21.581 20.7914 21.574 20.8681 21.5747 20.9429C21.5759 21.038 21.591 21.0468 21.5935 21.1356C21.6036 21.5437 21.6633 21.9316 21.718 22.3302C21.8419 23.2314 22.3864 24.5306 22.1374 25.2765C22.0695 25.4794 21.7721 25.7886 21.547 26.4427C21.3156 27.1163 21.4973 26.7475 21.1251 27.1271C21.0861 27.1664 21.0597 27.1937 21.0201 27.233C20.939 27.3147 20.8805 27.3698 20.8082 27.4598L20.6133 27.7038C20.5486 27.7913 20.4957 27.8642 20.4316 27.9611C20.1971 28.316 19.8884 28.773 20.0085 29.247C20.0493 29.4093 20.1883 29.6983 20.3687 29.7471V29.7826C19.9519 29.8947 19.8519 31.2263 20.7535 31.2263C20.7724 31.2972 20.8321 31.3315 20.8805 31.3803C21.1182 31.6205 21.42 31.8841 21.7828 31.7523C21.9362 31.6965 22.0098 31.6452 22.1349 31.5609C22.2455 31.7276 22.5788 31.8904 22.7567 32.0083C23.1767 32.2865 23.6986 32.2802 24.2016 32.182C24.4066 32.142 24.5738 32.1015 24.7631 32.0425C24.9089 31.9969 24.8637 32.0013 25.0039 32.0692C25.1743 32.1509 25.383 32.2415 25.5968 32.2656H25.8093C25.8231 32.2637 25.837 32.2618 25.8508 32.2593C25.9841 32.2346 26.1061 32.1668 26.2016 32.0844C26.2419 32.0495 26.2501 32.0311 26.2941 32.0013C26.3312 31.9918 26.611 32.0565 26.6657 32.0673C26.7927 32.092 26.9096 32.1167 27.0297 32.1408C27.3038 32.1972 27.5296 32.2016 27.7873 32.2403C28.0351 32.2777 28.3859 32.2175 28.5569 32.1503C28.8462 32.0362 28.8719 31.9367 28.9857 31.72C29.1794 31.72 29.6742 31.8258 29.8974 31.8581C30.0496 31.8797 30.2124 31.9044 30.3665 31.9139C30.5123 31.9228 30.6884 31.95 30.838 31.9494C31.1788 31.9481 31.5548 31.9595 31.7258 31.7865C32.0402 31.4696 31.7265 31.1692 31.6598 31.0685C31.8101 31.0811 31.878 31.1077 32.0339 31.0577C32.2269 30.9962 32.3219 30.8162 32.3414 30.6236V30.4702C32.3326 30.3808 32.3087 30.2946 32.2722 30.2224C32.1439 29.9695 31.8572 29.7908 31.5976 29.6869C31.5152 29.6539 31.3844 29.5969 31.2926 29.5886C31.2926 29.2191 31.2662 28.8871 31.226 28.529C31.1637 27.977 31.1059 27.4434 30.9858 26.9047C30.8525 26.3064 30.7192 25.7138 30.4991 25.1409C30.4287 24.9578 30.3715 24.7765 30.296 24.6054C30.2193 24.4298 30.1521 24.253 30.0741 24.0718L29.7792 23.4355C29.6572 23.1395 29.4906 22.8581 29.3404 22.5742C29.1524 22.2187 29.1071 22.1768 28.9222 21.8688C28.7311 21.5501 28.6091 21.1806 28.4809 20.8345C28.462 20.7832 28.4519 20.7433 28.4312 20.6913C28.4104 20.6393 28.3966 20.6191 28.3909 20.5557C28.4676 20.5494 28.4192 20.5576 28.4639 20.524C28.523 20.479 28.6104 20.4739 28.5657 20.3801C28.6468 20.3782 28.6525 20.3782 28.6707 20.3098C28.6506 20.2794 28.6355 20.2369 28.5745 20.2642C28.5223 20.2876 28.5393 20.3212 28.5481 20.3624C28.462 20.3643 28.4626 20.3637 28.4607 20.4505C28.3922 20.4175 28.3891 20.434 28.3381 20.4682C28.3281 20.3434 28.1784 20.1444 28.24 20.0366C28.2822 19.9638 28.3381 20.0012 28.3438 19.9175C28.3488 19.8427 28.3318 19.8826 28.3557 19.7812L28.257 19.6513C28.2545 19.6488 28.2495 19.6462 28.2463 19.6443L28.1885 19.5955C28.1621 19.5727 28.1879 19.5753 28.1438 19.5702C28.0766 19.562 28.0998 19.5803 28.0929 19.5841L28.0583 19.6228C28.0502 19.5214 27.9967 19.4599 27.9885 19.3585C28.0608 19.3522 28.0193 19.3573 28.0407 19.3408L28.1111 19.4137L28.1803 19.394L28.1979 19.3585L28.1803 19.2882C28.1583 19.2831 28.1099 19.2793 28.1055 19.278C28.0615 19.2666 28.0684 19.2444 28.0206 19.2394C27.9646 19.233 27.9615 19.2597 27.959 19.2514C27.9584 19.2495 27.9546 19.254 27.9527 19.2533C27.9282 19.2311 27.7647 18.5917 27.7471 18.5093C27.6226 17.9142 27.4176 17.5181 27.4032 17.4471C27.368 17.2779 27.3743 16.6765 27.3372 16.3501C27.3265 16.2544 27.3409 16.2652 27.3409 16.1536C27.3931 16.1676 27.5019 16.2499 27.5377 16.2899C27.6955 16.4616 27.7207 16.7487 27.7974 16.9794C27.8376 17.1004 27.9244 17.3248 28.0634 17.3451C28.3073 17.3806 28.2155 16.949 28.2143 16.911C28.2935 16.9173 28.323 16.9414 28.3922 16.897C28.5645 16.7867 28.3784 16.5389 28.2973 16.4394C28.03 16.1111 27.8534 16.0997 27.7943 16.0478C28.0923 16.0547 28.2237 16.3368 28.4651 16.499C28.8405 16.7506 29.1065 16.5808 29.3498 16.5231C29.346 16.5206 29.341 16.518 29.3385 16.5174L29.302 16.5015C29.2221 16.4762 29.0084 16.4984 28.6739 16.3418C28.54 16.2791 28.2558 16.0414 28.1967 15.9603C28.2683 15.9774 28.2451 15.992 28.3362 15.9971C28.4708 16.0047 28.6179 15.954 28.6179 15.8019C28.6179 15.6396 28.4104 15.5382 28.2646 15.5218C27.7798 15.4685 27.522 15.8082 27.3749 15.9071C27.3761 15.8443 27.3981 15.7594 27.4051 15.7087C27.5057 14.9488 27.3925 14.952 27.766 14.17C27.893 13.9044 28.0426 13.4975 28.1445 13.2833C28.4129 13.2833 28.4243 13.2054 28.5123 13.0197C28.5462 12.9481 28.5532 12.9829 28.6066 12.9208C28.6072 12.9202 28.6274 12.8923 28.6286 12.8898C28.6487 12.853 28.6506 12.8416 28.6519 12.7896C28.7575 12.7896 28.8543 12.8042 28.821 12.6749C28.8078 12.6229 28.7323 12.5266 28.7047 12.4899C28.6594 12.4303 28.4733 12.2262 28.4073 12.2085C28.4129 11.9638 28.4815 12.2744 28.5997 12.05L28.5362 11.8846C28.4997 11.8035 28.4752 11.8834 28.5192 11.7046C28.594 11.4011 28.6582 10.9961 28.611 10.683C28.5532 10.2983 28.5047 10.0626 28.6525 9.68992L28.9172 9.0232C28.9587 8.91927 29.1197 8.44079 29.1895 8.3641C29.3869 8.14672 29.3158 7.9623 29.3196 7.82414L29.5114 6.85703C29.5579 6.57374 29.5818 6.3139 29.5963 6.00906C29.6038 5.84745 29.6648 5.79738 29.6484 5.58697C29.6264 5.30685 29.3227 4.68197 29.1888 4.41262L28.9505 3.96583C28.9203 3.91259 28.8927 3.85809 28.8631 3.80739C28.6821 3.49051 28.6424 3.40685 28.4129 3.09884C28.0967 2.67486 28.2545 2.52276 27.6037 2.52276C27.4466 2.52276 27.2881 2.5253 27.1309 2.52339C26.931 2.52149 26.9222 2.47776 26.8027 2.39601C26.704 2.3282 26.6424 2.27306 26.5267 2.21666C26.4978 2.20081 26.4594 2.19194 26.4167 2.1875ZM21.6633 18.0175C21.63 18.0562 21.608 18.0517 21.6633 18.0701V18.0175ZM27.4308 16.0978L27.4258 16.1029C27.4264 16.1029 27.4327 16.0997 27.4308 16.0978ZM27.3787 16.0807L27.3736 16.0858C27.3736 16.0852 27.3805 16.082 27.3787 16.0807ZM27.7106 16.0452H27.7804C27.7477 16.0243 27.8194 16.0256 27.7452 16.0307C27.7081 16.0332 27.7301 16.0319 27.7106 16.0452ZM19.9154 15.9045L19.9104 15.9096C19.9104 15.909 19.9173 15.9058 19.9154 15.9045ZM28.13 15.9223C28.1086 15.9033 28.1237 15.9134 28.0891 15.8931C28.0778 15.8862 28.0514 15.8729 28.0432 15.8691C27.8779 15.793 27.7295 15.8754 27.7106 15.8874C28.0942 15.8868 27.9118 15.9039 28.13 15.9223ZM23.3584 14.0552C23.3584 14.1452 23.3584 14.0844 23.376 14.1078C23.376 14.0153 23.376 14.0819 23.3584 14.0552ZM28.34 13.1401C28.2363 13.1312 28.2105 13.0716 28.1828 13.1927C28.2784 13.1927 28.2973 13.1984 28.34 13.1401ZM28.3922 13.0165H28.235V13.052C28.3293 13.052 28.352 13.0723 28.3922 13.0165ZM28.3576 12.8403H28.2878L28.2677 12.9455L28.3752 12.9462C28.374 12.8923 28.367 12.8822 28.3576 12.8403ZM24.6694 12.8403L24.6323 12.9626C24.6989 12.9462 24.6713 12.9449 24.7222 12.9107L24.6694 12.8403ZM28.5148 12.9107C28.5909 12.8904 28.6022 12.865 28.6022 12.77C28.506 12.7617 28.4067 12.6844 28.5148 12.9107ZM28.5148 12.6293C28.5224 12.7212 28.4978 12.661 28.55 12.6819L28.5381 12.6584C28.5249 12.6394 28.5154 12.6299 28.5148 12.6293ZM24.9316 12.5938C24.8668 12.6375 24.8637 12.6825 24.8266 12.7522C24.8964 12.7339 24.9253 12.6743 24.9316 12.5938ZM28.445 12.647C28.4412 12.5976 28.4438 12.6027 28.4192 12.5672C28.3865 12.5196 28.4041 12.5361 28.3576 12.5235C28.3576 12.6502 28.3551 12.5925 28.445 12.647ZM28.3922 12.2947C28.3922 12.4316 28.4463 12.4062 28.5601 12.583C28.5984 12.6426 28.6261 12.7484 28.7317 12.7072C28.865 12.6553 28.5695 12.3973 28.484 12.3067C28.4563 12.2776 28.3922 12.1983 28.3922 12.2947ZM26.7669 3.19138C26.6109 3.15462 26.7317 3.12419 26.5569 3.13877C26.5569 3.32256 26.5977 3.17236 26.5537 3.47276C26.5739 3.45375 26.5531 3.48037 26.5808 3.44425L26.7669 3.19138Z" fill="black"/>
</svg>
