<svg width="51" height="35" viewBox="0 0 51 35" fill="none" xmlns="http://www.w3.org/2000/svg">
<rect width="51" height="35" rx="17.5" fill="white"/>
<path fill-rule="evenodd" clip-rule="evenodd" d="M24.7473 12.0868C24.7473 12.0868 24.986 11.3927 24.7174 10.974C24.4489 10.5554 23.8938 9.68777 23.8938 9.68777L23.9119 8.77837C23.9119 8.77837 24.2012 8.87694 24.3923 9.16742C24.5833 9.45755 24.9085 9.35271 25.0068 9.18831C25.1051 9.02392 25.35 9.17926 25.3618 8.93406C25.3618 8.93406 25.5678 8.93685 25.663 8.74563C25.663 8.74563 25.9343 8.90132 26.0121 8.83236C26.0896 8.76339 26.2539 8.4764 26.2897 8.07551C26.2897 8.07551 26.388 7.96475 26.6117 7.94699C26.8354 7.92888 26.7638 7.70179 26.9337 7.48341C27.1039 7.26502 27.1157 7.07347 27.1157 7.07347C27.1157 7.07347 27.3544 6.95992 27.3366 6.51689C27.3186 6.0742 26.8354 4.5128 25.2958 4.50061C23.7562 4.48877 23.9233 6.22362 22.7898 6.75025C22.7898 6.75025 22.3542 6.70845 21.7276 6.85787L20.2658 6.08013L19.8361 4.11783C19.8361 4.11783 20.4388 3.82457 20.5937 3.52538C20.749 3.2262 20.6354 2.981 20.6354 2.981C20.6354 2.981 20.692 2.75669 20.5521 2.71768C20.4117 2.67867 20.1613 2.49617 20.1613 2.49617C20.1613 2.49617 20.1164 2.13429 20.0508 2.19419C19.9851 2.2541 20.0119 2.38855 19.9525 2.53239C19.8931 2.67624 19.4571 2.31088 19.0514 2.30217C18.6457 2.29311 18.6276 2.34988 18.6425 2.4697C18.6575 2.58951 18.9736 2.55956 18.9736 2.55956C18.9736 2.55956 18.5828 2.93955 18.5348 3.28645C18.5348 3.28645 16.4047 4.17181 15.7423 5.01539C15.7423 5.01539 15.4918 5.43404 14.8235 5.99654C14.1551 6.55903 14.3938 6.80423 15.0323 7.31274C15.6707 7.82126 16.3926 8.15039 16.882 8.2521C17.3715 8.3538 17.616 8.61119 17.616 8.61119C17.616 8.61119 17.3058 10.6811 17.1985 11.4111C17.0912 12.1412 15.2772 15.6109 14.7877 16.3527C14.2983 17.0946 14.5251 17.2381 14.9906 17.4297C14.9906 17.4297 14.9906 20.7918 15.1695 21.8809C15.1695 21.8809 14.2625 24.7526 14.0714 26.1405C13.8804 27.5285 13.9401 29.0122 13.451 29.5747C12.9619 30.1372 12.9081 30.2508 13.2005 30.8728C13.493 31.4949 13.4274 32.1591 13.6421 32.2308C13.8567 32.3026 14.1791 32.2549 14.3344 32.165C14.4897 32.0751 14.4775 31.3932 14.4775 31.3932C14.4775 31.3932 14.6564 31.1062 15.1636 30.9745C15.6707 30.8429 15.9573 30.3702 16.0167 29.5566C16.0765 28.743 16.2078 27.0677 16.2078 27.0677C16.2078 27.0677 16.8581 26.0566 17.0251 25.608C17.0251 25.608 18.0694 26.5233 18.2483 28.1986C18.4272 29.8739 18.845 30.5318 18.9642 30.6875C18.9642 30.6875 18.6717 30.6607 18.654 30.8133C18.6359 30.9658 18.9253 31.4085 19.3672 31.5161C19.8087 31.6238 20.3575 31.1992 20.6441 30.6248L21.0023 31.0198L21.0919 30.8704C21.0919 30.8704 20.6205 30.5353 20.5607 29.9728C20.501 29.4103 20.4235 29.231 20.4235 29.231C20.4235 29.231 20.525 28.8123 20.2384 28.6026C19.9521 28.3933 19.4509 28.4532 19.3074 27.5079C19.1643 26.5627 19.3074 24.397 18.2691 23.607C18.2691 23.607 19.0448 23.296 20.3933 23.5593C20.3933 23.5593 24.427 29.1592 25.4532 30.2121C26.4797 31.265 26.8316 31.4803 27.1241 31.3068C27.4165 31.1334 27.4523 31.6837 27.4464 31.971C27.4405 32.258 28.7772 31.995 28.986 31.9233C29.1948 31.8515 29.1173 31.6899 29.1173 31.6899C29.1173 31.6899 29.9586 31.6781 30.3526 31.7376C30.7465 31.7976 31.1223 31.5461 31.4864 31.0916C31.8504 30.637 31.2596 30.5054 30.8003 30.5054C30.3407 30.5054 29.1416 29.7935 28.7359 29.2909C28.3301 28.7883 28.1033 28.4414 27.7455 28.1899C27.3874 27.9388 26.8145 26.8678 26.8145 26.8678C26.8145 26.8678 27.65 26.9155 28.3659 26.7302C28.3659 26.7302 28.7657 26.9454 28.8255 27.2147C28.8852 27.4839 29.0284 26.8138 29.9951 26.2635C29.9951 26.2635 33.2531 27.9743 33.8138 28.6326C34.3748 29.2909 34.9417 29.6855 35.3534 29.8889C35.765 30.0923 37.0896 30.6848 37.4717 30.3615C37.8534 30.0383 37.8298 29.2247 37.1135 28.8959C36.3976 28.5668 35.4906 28.3216 35.0967 27.8966C34.7027 27.4717 34.3328 27.7114 34.3328 27.7114C34.3328 27.7114 33.0676 26.0002 32.2683 25.4258C31.4687 24.8515 30.371 24.6241 29.0343 23.0209C27.6976 21.4177 27.2203 20.4362 26.8743 20.0057C26.5283 19.5748 26.719 19.3836 26.719 19.3836C26.719 19.3836 27.9244 20.0656 28.187 19.6647C28.4496 19.2638 28.5212 18.4261 28.3419 17.1698C28.1631 15.9135 28.2225 14.729 27.7691 14.1547C27.3158 13.5803 26.8083 13.0178 26.8083 12.7608C26.8083 12.5037 26.9636 12.1624 26.9636 12.1624C26.9636 12.1624 27.2679 13.0359 28.1808 12.9882C29.0937 12.9405 29.5651 11.6838 29.3264 10.9301C29.3264 10.9301 29.6366 10.1284 29.416 9.68568C29.1951 9.243 28.6522 8.52516 27.7452 8.50113C26.8382 8.4771 26.6294 8.71637 26.4501 8.96192C26.2712 9.20712 25.8148 9.07546 25.7759 9.19528C25.737 9.31509 25.7908 9.36873 25.7669 9.43769C25.7429 9.50666 25.4716 9.51536 25.4775 9.66513C25.4775 9.66513 25.3462 9.71459 25.2955 9.81908C25.2447 9.92391 25.2774 10.0193 25.1134 10.0824C24.9495 10.1451 24.8988 10.6149 25.5074 10.9618C25.5067 10.9601 25.5185 11.4982 24.7473 12.0868ZM18.382 20.8492L17.9822 20.3707C17.9822 20.3707 17.7435 20.658 17.7255 21.0467L18.382 20.8492ZM21.5504 15.9313C21.5504 15.9313 21.4191 16.793 21.4966 17.2176C21.4966 17.2176 21.425 16.7031 21.228 16.5593C21.228 16.5596 21.4789 16.2604 21.5504 15.9313Z" fill="black"/>
</svg>
