<svg width="51" height="35" viewBox="0 0 51 35" fill="none" xmlns="http://www.w3.org/2000/svg">
<rect width="51" height="35" rx="17.5" fill="white"/>
<path d="M32.5794 11.5732C32.5174 11.4985 32.4062 11.4359 32.3691 11.3482C32.3199 11.2361 32.295 11.0988 32.2081 11.0111C32.1454 10.9486 32.0591 10.9112 31.9722 10.886C31.8731 10.8609 31.7619 10.8609 31.6622 10.8364C31.5753 10.8241 31.5012 10.8113 31.427 10.8738L31.4149 10.8615C31.3657 10.8241 31.3158 10.7616 31.2538 10.7494C31.117 10.6617 30.9687 10.5869 30.8205 10.4999C30.6715 10.4122 30.5226 10.3123 30.3622 10.2375C30.1883 10.1627 30.0151 10.1002 29.8541 10.0003C29.693 9.89971 29.5191 9.81268 29.3459 9.71276C29.0238 9.54966 28.6895 9.42525 28.3175 9.40011C28.2594 9.40011 28.2006 9.39946 28.1418 9.39817C28.0044 9.30921 27.8574 9.28342 27.7103 9.23765C27.5371 9.16287 27.3882 9.06231 27.2393 8.96239C27.1032 8.88761 26.967 8.81283 26.8181 8.76254C26.7561 8.7374 26.682 8.72516 26.62 8.68777C26.5707 8.65038 26.5458 8.60009 26.5087 8.5627C26.4717 8.388 26.4097 8.22555 26.3355 8.07535C26.2985 7.98767 26.2614 7.90064 26.1866 7.85036C26.1272 7.80524 26.0588 7.8149 25.9923 7.83166C25.9942 7.7672 25.9968 7.70273 26.0006 7.63762C26.0128 7.46292 26.0377 7.30047 26.0626 7.12513C26.1738 7.05035 26.2857 6.93753 26.3477 6.83761C26.4097 6.74994 26.4717 6.65001 26.4966 6.53785C26.4966 6.58748 26.4966 6.62552 26.4966 6.67516C26.4966 6.7003 26.5215 6.7003 26.5215 6.67516C26.5215 6.66291 26.5337 6.65002 26.5337 6.62552C26.5337 6.62552 26.5458 6.62552 26.5458 6.61327C26.6404 6.30126 26.7229 5.97055 26.7273 5.6392C26.7996 5.62631 26.8711 5.60955 26.9421 5.58892C27.1409 5.53928 27.4004 5.43936 27.4004 5.20148C27.4004 5.05192 27.2642 4.91461 27.1281 4.83919C27.1153 4.82694 27.1032 4.81404 27.091 4.81404C27.0539 4.7889 26.9919 4.75151 26.9299 4.72637C26.9178 4.71348 26.8929 4.71348 26.8679 4.70123C26.8309 4.68898 26.7938 4.67609 26.7567 4.66384C26.7689 4.56392 26.7817 4.47625 26.8066 4.37633C26.8558 4.18873 26.8929 3.98954 26.9306 3.78905C26.9677 3.60145 26.9926 3.41386 27.0795 3.23916C27.1415 3.11409 27.2284 2.96389 27.1914 2.82658C27.1914 2.81433 27.1914 2.80144 27.1792 2.78919C26.9191 2.53907 26.535 2.43914 26.2007 2.35147C25.8165 2.2393 25.4075 2.17677 25.0112 2.18902C24.6399 2.20127 24.2679 2.27669 23.9457 2.47589C23.8218 2.56356 23.4996 2.7763 23.5616 2.96325C23.5738 3.06381 23.6115 3.17598 23.6358 3.2759C23.6607 3.42546 23.6728 3.58856 23.685 3.75037C23.7099 3.97535 23.7348 4.18809 23.7719 4.41243C23.6728 4.41243 23.5738 4.42532 23.4747 4.45046C23.3136 4.43821 23.1398 4.55038 23.0286 4.67545C22.9046 4.82501 22.9046 5.02549 23.0164 5.17505C23.1359 5.33557 23.3341 5.42067 23.545 5.47353C23.5226 5.55475 23.4996 5.63984 23.4996 5.72494C23.4996 5.73719 23.4996 5.73719 23.4996 5.75008C23.4996 5.76233 23.5245 5.76233 23.5367 5.76233C23.5865 5.72494 23.6108 5.67466 23.6607 5.62502C23.6115 5.73719 23.5738 5.87514 23.5616 6.00021C23.5495 6.13752 23.5367 6.32511 23.6358 6.43792C23.6358 6.43792 23.6358 6.45017 23.6358 6.46307C23.6479 6.48821 23.6728 6.48821 23.685 6.46307C23.685 6.46307 23.685 6.46307 23.6971 6.45082C23.6971 6.55074 23.7093 6.65066 23.747 6.73834C23.809 6.8634 23.8831 7.01296 23.995 7.08774C24.0071 7.27533 24.0819 7.46293 24.1062 7.62473C24.1177 7.67179 24.126 7.71821 24.1324 7.76527C24.0646 7.75108 23.993 7.75366 23.9208 7.76269C23.8837 7.76269 23.871 7.81233 23.8838 7.85036C23.809 7.92514 23.8218 8.09984 23.7968 8.18816C23.7719 8.30033 23.7227 8.42539 23.6607 8.53756C23.6485 8.57495 23.6236 8.62523 23.6115 8.66262C23.5744 8.67487 23.5373 8.68777 23.5003 8.68777C23.4383 8.71291 23.3641 8.72515 23.3021 8.7374C23.2273 8.76254 23.1532 8.78769 23.0912 8.82508C22.98 8.86247 22.8681 8.93724 22.7691 8.99978C22.608 9.10034 22.4597 9.20026 22.298 9.31243C22.1369 9.4375 21.9388 9.44974 21.7778 9.53742C21.7714 9.54129 21.765 9.54515 21.7579 9.54902C21.6589 9.59415 21.5604 9.68826 21.4927 9.73726C21.2818 9.88682 21.0836 10.0248 20.8484 10.1247C20.6503 10.2117 20.4521 10.2994 20.254 10.4116C20.13 10.487 19.9319 10.4618 19.8328 10.5992C19.7587 10.5992 19.6839 10.5869 19.6097 10.5992C19.5228 10.6114 19.4608 10.6991 19.4238 10.7739C19.3618 10.8989 19.3125 10.8486 19.2007 10.8738C19.1758 10.8738 19.1515 10.886 19.1387 10.8989C19.1266 10.8989 19.1138 10.8867 19.1016 10.8738C19.0268 10.8364 18.9406 10.8486 18.8907 10.9112C18.7667 10.9241 18.6926 11.024 18.6306 11.1239C18.5686 11.2361 18.5315 11.3238 18.4197 11.3863C18.3206 11.4488 18.2215 11.4991 18.1844 11.6113C18.1595 11.6487 18.1595 11.6989 18.1844 11.7486C17.9735 11.8234 17.8745 12.0612 17.9122 12.2856C17.9614 12.6105 18.1474 12.8606 18.3084 13.1352C18.5066 13.4479 18.7047 13.7728 18.9406 14.0597C19.0646 14.2099 19.2007 14.3349 19.3247 14.4845C19.4238 14.5967 19.5228 14.7095 19.6219 14.8094C19.696 14.8971 19.783 14.959 19.8699 15.0344C19.9689 15.122 20.0808 15.2097 20.192 15.2845C20.4521 15.4341 20.7244 15.534 20.9846 15.6719C21.2198 15.797 21.4185 15.9092 21.6908 15.9092C21.765 15.9092 21.926 15.9343 21.9759 15.8466C22.0008 15.8589 22.0257 15.8589 22.0379 15.8589C22.1248 15.884 22.1989 15.8963 22.2852 15.8963C22.3472 15.9085 22.4214 15.884 22.4584 15.8337C22.4834 15.8337 22.5083 15.7964 22.4955 15.7712C22.3217 15.4586 21.9005 15.396 21.6531 15.1962C21.5291 15.0963 21.4179 14.9834 21.3061 14.8584C21.1948 14.7462 21.0951 14.6334 21.0089 14.4961C20.9219 14.3336 20.8599 14.1583 21.0459 14.0584C21.1578 13.9958 21.269 13.9584 21.393 13.9333C21.4921 13.9082 21.7279 13.8211 21.6531 13.6954C21.6531 13.6703 21.6531 13.6451 21.616 13.6329C21.4921 13.6078 21.3681 13.6078 21.2319 13.5833C21.1328 13.571 21.021 13.5581 20.9098 13.571C20.6746 13.571 20.4886 13.6587 20.2655 13.7335C20.1294 13.7715 20.0175 13.7586 19.9434 13.6213C19.8814 13.5214 19.8443 13.4092 19.8194 13.297C19.7823 13.0965 19.7331 12.9096 19.6954 12.7091C19.7075 12.7091 19.7075 12.7214 19.7203 12.7214C19.7574 12.7214 19.7823 12.6962 19.7945 12.6588C19.8194 12.5589 19.8315 12.5093 19.9427 12.5093C20.0175 12.5093 20.1287 12.5215 20.2029 12.497C20.2898 12.4474 20.3141 12.3848 20.3141 12.3094C20.3761 12.3094 20.4502 12.2972 20.5122 12.272C20.6113 12.2346 20.7104 12.1844 20.8222 12.1844C20.9584 12.1844 21.1073 12.234 21.2434 12.2469C21.2434 12.2591 21.2683 12.272 21.2926 12.272C21.5298 12.2359 21.7675 12.2572 22.0155 12.2591C22.0181 12.2637 22.0206 12.2675 22.0238 12.272C22.1357 12.4345 22.2718 12.5969 22.383 12.7594C22.4821 12.8845 22.5441 13.0347 22.6432 13.1591C22.7544 13.5717 22.8164 13.9842 22.8292 14.4213C22.8413 14.8964 22.817 15.3709 22.8662 15.8582C22.8784 15.9582 22.8912 16.0581 22.9033 16.158C22.9154 16.2205 22.9154 16.2953 22.9531 16.3578C22.9781 16.4081 23.0522 16.4829 23.0273 16.5583C23.0024 16.608 22.9653 16.646 22.9282 16.6956C22.7793 16.8581 22.7422 17.0708 22.8662 17.2707C22.8803 17.2913 22.895 17.3113 22.911 17.33C22.8988 17.3841 22.8796 17.437 22.8541 17.4957C22.8049 17.5827 22.7672 17.6704 22.7422 17.758C22.6681 17.9959 22.631 18.2454 22.5939 18.4833C22.5569 18.7456 22.507 19.008 22.47 19.2704C22.445 19.458 22.408 19.6578 22.3958 19.8454C22.3089 20.2451 22.321 20.6822 22.346 21.0825C22.3581 21.3075 22.383 21.5325 22.3958 21.7575C22.3958 21.9573 22.3958 22.17 22.3958 22.3699C22.3958 22.582 22.408 22.7947 22.4329 23.0068C22.4578 23.1944 22.5077 23.382 22.5569 23.5818C22.6189 23.8442 22.6809 24.1317 22.8292 24.3689C22.8541 24.6313 22.9282 24.8814 23.0151 25.1187C23.1021 25.3559 23.2133 25.6312 23.3865 25.8181C23.3865 25.9935 23.4485 26.1804 23.4983 26.3306C23.5725 26.5427 23.6594 26.7548 23.7336 26.9553C23.9195 27.4304 24.0435 27.9178 24.1797 28.4051C24.1861 28.4309 24.1937 28.4567 24.2014 28.4825C24.1356 28.5985 24.0883 28.7403 24.0678 28.8551C24.0429 28.955 24.0186 29.0801 24.0429 29.1929C24.0429 29.2051 24.0308 29.218 24.0308 29.2303C24.0308 29.3676 24.204 29.4675 24.3158 29.53C24.452 29.6177 24.613 29.6931 24.7619 29.7428C24.8623 29.7834 24.9869 29.8395 25.1026 29.8459C25.1045 29.8775 25.1039 29.9097 25.109 29.9426C25.1212 30.0052 25.171 30.0928 25.2081 30.1554C25.233 30.1805 25.2573 30.2179 25.295 30.2301C25.3321 30.2927 25.357 30.3926 25.3449 30.4551C25.3327 30.4674 25.3449 30.4925 25.357 30.5176C25.2451 30.6305 25.1339 30.7555 25.0221 30.8799C24.8859 31.0301 24.6507 31.0173 24.514 31.1804L24.5018 31.1926C24.3778 31.2429 24.2538 31.3177 24.1797 31.4176C24.0928 31.5427 24.0678 31.68 24.0806 31.8302C24.1055 31.9307 24.1547 32.1428 24.2787 32.1428C24.3407 32.1551 24.4027 32.168 24.452 32.1802C24.6002 32.2176 24.7613 32.2427 24.9102 32.255C25.1084 32.2672 25.4184 32.2924 25.6286 32.1673C25.7526 32.1544 25.8638 31.9797 25.9137 31.8798C25.9636 31.7547 26.0255 31.6303 26.1368 31.5678C26.2358 31.5182 26.3477 31.5182 26.4589 31.4801C26.4589 31.4801 26.471 31.4801 26.4838 31.493C26.5586 31.493 26.6327 31.5304 26.7069 31.5433C26.7689 31.5555 26.8181 31.5684 26.8801 31.5555C26.9792 31.5807 27.1281 31.5433 27.2271 31.5181C27.3384 31.493 27.4624 31.455 27.5614 31.3931C27.6605 31.3435 27.7723 31.2306 27.7966 31.1062C27.8088 31.1062 27.8216 31.094 27.8216 31.0811C27.8465 30.956 27.7474 30.7936 27.6733 30.7059C27.6113 30.6434 27.5614 30.5937 27.5244 30.5183C27.5237 30.5176 27.5237 30.517 27.5231 30.517C27.6643 30.5234 27.8209 30.5125 27.9078 30.4313C27.92 30.4564 27.9577 30.4564 27.9698 30.419C28.0446 30.2314 28.0197 30.0064 27.9078 29.8317C27.8088 29.6822 27.6477 29.5694 27.4988 29.4694C27.3326 29.3618 27.1779 29.2419 27.0341 29.0994C27.0213 29.0362 26.9913 28.9698 26.9536 28.9318C26.8974 28.8416 26.8206 28.7726 26.7337 28.7139C26.712 28.6797 26.6903 28.6436 26.6685 28.6069C26.6685 28.5818 26.6807 28.5695 26.6807 28.5444C26.6928 28.4818 26.7177 28.4193 26.7427 28.3574C26.7797 28.2575 26.8296 28.1569 26.8539 28.0448C26.8788 27.9074 26.866 27.7824 26.829 27.6573C26.7919 27.5323 26.767 27.4078 26.7299 27.2828C26.9159 27.2325 27.1012 27.07 27.2502 26.945C27.4234 26.7954 27.5851 26.6323 27.7334 26.4454C28.0063 26.1456 28.2044 25.7827 28.3527 25.3952C28.5016 24.9956 28.6128 24.5959 28.7368 24.1833C28.786 23.9834 28.848 23.7836 28.9228 23.5838C28.997 23.3962 29.0717 23.2215 29.1331 23.0461C29.3319 22.9462 29.4182 22.709 29.4309 22.5091C29.4431 22.3841 29.4309 22.2223 29.5051 22.1094C29.53 22.0469 29.5671 21.9973 29.5914 21.947C29.7026 21.8097 29.6655 21.6092 29.6284 21.4474C29.5792 21.2475 29.5543 21.0477 29.5172 20.8479C29.4674 20.3856 29.3932 19.9228 29.2692 19.4735C29.158 19.086 29.0091 18.7108 28.8353 18.3363C28.7483 18.1616 28.662 17.9869 28.5502 17.8238C28.501 17.7613 28.4505 17.6865 28.3891 17.6117C28.4077 17.4538 28.391 17.2687 28.306 17.1424C28.3527 17.116 28.3859 17.0805 28.4013 17.0115C28.439 16.8865 28.3393 16.7614 28.2901 16.6615C28.2408 16.5113 28.191 16.3862 28.1661 16.2489C28.2945 16.0587 28.2805 15.8447 28.2134 15.6391C28.3501 15.592 28.485 15.5333 28.6122 15.474C28.7854 15.3992 28.9593 15.349 29.1325 15.2619C29.1695 15.2497 29.1945 15.2368 29.2315 15.2123C29.2437 15.2123 29.2565 15.2123 29.2686 15.2123C29.4054 15.0995 29.5166 14.937 29.6406 14.7997C29.7646 14.6495 29.9007 14.5245 30.0618 14.4123C30.3967 14.1622 30.7182 13.9127 31.0531 13.6748C31.3752 13.4627 31.6846 13.2371 31.9326 12.938C32.0687 12.7755 32.2426 12.5757 32.2547 12.35C32.3046 12.3249 32.3659 12.3004 32.4158 12.2624C32.5647 12.225 32.6638 12 32.6638 11.8498C32.6663 11.7486 32.6542 11.6487 32.5794 11.5732ZM26.8309 22.9449C26.7069 23.1074 26.6327 23.3072 26.5458 23.4948C26.4589 23.7198 26.3847 23.9319 26.2857 24.1446C26.2237 24.2697 26.1617 24.3818 26.1125 24.5069C25.9885 24.6939 25.8894 24.9311 25.8153 25.1438C25.7635 25.2637 25.7207 25.3881 25.681 25.5171C25.4887 25.2367 25.2196 24.9717 25.3071 24.6191C25.3941 24.4818 25.3941 24.3193 25.3442 24.1569C25.3193 24.0447 25.2822 23.9441 25.2701 23.832C25.2451 23.7069 25.2701 23.5696 25.295 23.4445C25.357 23.1821 25.419 22.932 25.4561 22.6574C25.4931 22.3699 25.5181 22.0824 25.5302 21.7949C25.5424 21.5073 25.5551 21.2198 25.5801 20.9323C25.605 20.657 25.6542 20.3953 25.6913 20.1323C25.7028 20.0717 25.7136 20.0105 25.7232 19.9499C25.7961 20.0865 25.8702 20.2213 25.9636 20.345C26.1495 20.6074 26.3726 20.8201 26.5829 21.0567C26.6947 21.1818 26.8059 21.3068 26.8922 21.4319C26.9792 21.5441 27.0412 21.682 27.1281 21.7942C27.0041 21.8941 26.905 22.0811 26.9299 22.219C26.9421 22.3312 26.9919 22.444 27.0539 22.5439C27.0661 22.5813 27.1038 22.6065 27.1287 22.6445C27.1287 22.6445 27.1409 22.6567 27.1409 22.6696C27.0041 22.7206 26.905 22.8327 26.8309 22.9449ZM28.2926 14.1602C28.2185 14.2853 28.1194 14.4104 28.0082 14.5225C27.9852 14.5477 27.9596 14.5728 27.9334 14.5986C27.9296 14.5728 27.9251 14.5477 27.9213 14.5225C27.888 14.2962 27.8663 14.0648 27.8669 13.8353C27.9551 13.8482 28.044 13.8508 28.1322 13.8605C28.1693 13.8605 28.2191 13.8605 28.2562 13.8727C28.2933 13.8979 28.3182 13.9101 28.3431 13.9352C28.3553 13.9604 28.368 13.9849 28.368 14.01C28.3546 14.0726 28.3297 14.1222 28.2926 14.1602ZM30.2874 12.6234C30.2503 12.6982 30.2005 12.7607 30.1513 12.8361C30.0401 12.9612 29.9282 13.0985 29.7793 13.1984C29.6182 13.3112 29.4201 13.3982 29.2219 13.3737C29.0737 13.3615 28.8998 13.2861 28.7509 13.3112C28.5406 13.299 28.3418 13.3486 28.1437 13.3989C28.0612 13.4079 27.9781 13.424 27.8899 13.4369C27.9098 13.2577 27.9219 13.0791 27.9328 12.9115C27.9449 12.7613 27.9698 12.624 27.9698 12.4867C28.0076 12.4119 28.0446 12.3243 28.0817 12.2488C28.1149 12.1953 28.1482 12.1386 28.1833 12.0819C28.283 12.107 28.3859 12.1109 28.4908 12.087C28.6397 12.087 28.8001 12.0374 28.949 12.0122C29.073 12 29.2213 11.9375 29.3581 12C29.4572 12.0503 29.5313 12.0748 29.6304 12.0374C29.7045 12.0251 29.7665 12 29.8285 12.0251C29.8662 12.0503 29.8911 12.0625 29.9154 12.0754C29.9154 12.1006 29.9154 12.1128 29.9154 12.1379C29.9276 12.2501 30.0266 12.3004 30.1257 12.3255C30.1749 12.3384 30.1749 12.3255 30.1877 12.3758C30.1998 12.4132 30.2126 12.4757 30.2376 12.5131C30.2625 12.5383 30.2753 12.5757 30.3123 12.5879C30.3002 12.5982 30.3002 12.6105 30.2874 12.6234Z" fill="black"/>
</svg>
