<svg width="188" height="188" viewBox="0 0 188 188" fill="none" xmlns="http://www.w3.org/2000/svg">
<path d="M86.075 32.9489C94.5847 32.9489 101.483 26.0505 101.483 17.5408C101.483 9.03123 94.5847 2.13281 86.075 2.13281C77.5654 2.13281 70.667 9.03123 70.667 17.5408C70.667 26.0505 77.5654 32.9489 86.075 32.9489Z" fill="black"/>
<path d="M82.8066 37.6191H71.6007C61.0672 37.6191 52.9243 44.0401 52.9243 54.7529V101.119C52.9243 108.59 64.1302 108.59 64.1302 101.119V56.2956H67.8654V175.825C67.8654 180.43 70.7341 183.295 75.336 183.295C79.9491 183.295 82.8066 180.43 82.8066 175.825V37.6191ZM131.365 93.6484L116.361 54.9621C115.057 46.2925 106.301 37.6191 96.3096 37.6191H86.5419V126.455C88.4095 126.463 90.2771 126.735 90.2771 127.266V175.825C90.2771 179.709 93.7024 183.295 97.7477 183.295C101.804 183.295 105.218 179.706 105.218 175.825V127.266H119.67C121.022 127.266 123.57 124.823 123.57 123.531C123.57 123.232 123.678 120.053 123.57 119.795L101.498 59.1456L101.371 58.5218C101.371 57.6365 102.114 56.9193 103.041 56.9193C103.829 56.9193 104.49 57.446 104.665 58.1483L119.67 97.3837C120.667 99.6286 124.769 101.119 127.466 101.119C131.07 101.119 131.444 94.0406 131.365 93.6484Z" fill="black"/>
</svg>
